<?xml version="1.0" encoding="UTF-8" standalone="no"?>
<!-- Created with Inkscape (http://www.inkscape.org/) -->

<svg
   width="194.84616mm"
   height="127.17419mm"
   viewBox="0 0 194.84616 127.17419"
   version="1.1"
   id="svg1"
   xmlns="http://www.w3.org/2000/svg"
   xmlns:svg="http://www.w3.org/2000/svg">
  <defs
     id="defs1" />
  <g
     id="layer1"
     transform="translate(-7.796245,-81.175)">
    <path
       id="path1-0"
       style="fill:#ffffff;stroke-width:0.0484201"
       d="m 147.7735,91.142752 c -0.5166,0.0078 -1.05191,0.105702 -1.58544,0.297656 -2.08177,0.965308 -3.89456,2.122179 -5.56866,3.40186 0.9837,1.087972 1.9158,2.223146 2.79107,3.399792 1.00629,-0.801353 2.01242,-1.400665 2.95227,-1.633492 0.08,-0.0069 0.15835,-0.0098 0.23461,-0.0088 1.14331,0.01434 1.86361,0.880212 2.14561,1.806092 0.57861,1.89851 0.66757,4.12364 0.41029,6.39444 0.94332,0.15635 1.86788,0.42872 2.7125,0.88315 0.22318,0.11772 0.43948,0.24583 0.64905,0.38292 0.72933,-4.32532 0.59918,-8.714826 -1.15342,-12.675191 -0.6572,-1.485224 -2.03817,-2.271867 -3.58788,-2.248442 z M 109.17224,91.9241 c -0.81647,-0.05527 -12.86803,5.539097 -17.4594,7.73338 -4.59145,2.19428 -9.15495,4.95892 -10.17974,5.23172 -1.30318,-0.90377 -2.78786,-2.07885 -4.35943,-3.30316 -0.15439,0.18455 -0.30636,0.37059 -0.45577,0.55811 -0.51237,0.64027 -1.00772,1.31279 -1.47537,2.00556 -0.34277,0.50989 -0.68657,1.05657 -1.00822,1.60714 1.3331,1.18498 2.46372,2.27842 3.13057,2.91713 -1.11021,0.97315 -2.07592,1.98034 -2.94867,3.03599 0.59206,0.54318 1.01301,1.27208 1.23042,2.04535 0.30953,1.02606 0.29768,2.11354 0.18915,3.16984 -0.29607,3.48882 -0.93687,6.96453 -2.0991,10.27327 -0.75144,2.10954 -1.75789,4.14913 -3.14555,5.9154 -0.806,1.00908 -2.04947,1.57755 -3.30883,1.75545 -1.50574,0.25076 -3.16622,-0.13913 -4.27416,-1.22008 -4.00851,6.45353 -7.09108,6.21702 -7.33755,7.38301 2.0366,2.19622 4.69034,3.77684 7.16028,5.49218 -0.15915,0.12034 -3.69123,1.35702 -3.69123,1.35702 8.09422,7.12848 16.5616,9.68891 19.29442,10.36991 -0.25016,0.4214 -3.73308,6.48809 -4.91392,9.27282 -5.84893,16.20037 -1.81078,24.07499 -2.76158,24.81812 -5.14062,-5.25124 -4.58735,-12.40942 -5.31906,-19.07739 -0.75729,-6.13443 -2.97608,-11.90816 -8.01036,-16.31942 -3.80401,-3.33315 -8.95745,-5.03223 -14.2751,-5.03742 -5.38085,0.13049 -11.8879,0.40395 -15.11742,5.04052 7.60172,-0.012 10.64789,15.10842 11.41946,22.69216 0.81836,8.0435 2.77115,15.23601 9.3772,21.08037 6.39582,5.38398 14.54806,7.97557 23.06113,7.59075 22.36211,-0.0104 44.7457,0.11308 67.10082,-0.0796 1.00158,-0.95838 2.40009,-9.32959 2.81739,-12.34344 -0.59444,0.16807 -1.15956,0.25192 -1.83039,0.31988 -0.82425,0.0519 -1.46611,0.0857 -2.29441,0.0186 -2.3594,-0.19192 -5.18676,-1.45764 -6.94378,-2.84479 -1.24746,-0.98476 -1.65827,-1.22711 -3.08094,-2.05569 0,0.76333 -0.0193,1.60949 -0.004,2.35283 0.13755,6.90737 -18.95012,6.51035 -19.34509,0.77876 -1.57277,-0.0709 -3.03075,-0.43489 -4.27519,-1.31154 -1.18473,-0.88715 -1.56001,-0.48572 -2.57607,0.31522 -6.22879,4.91142 -16.95793,5.94728 -23.2053,0.52917 -1.34184,-1.16381 -1.18669,-3.24633 0.73948,-1.90634 9.06643,6.30528 19.17134,0.49302 18.91411,0.21756 -2.1949,-2.01137 -2.75894,-3.41079 -1.68518,-6.50452 -4.1882,1.43766 -13.77358,-8.25432 -10.56886,-10.12703 1.00486,0.21725 4.86076,9.29813 14.08699,7.1453 0.50049,-0.11714 1.38338,-0.16714 1.92755,-0.20619 1.68722,-2.31714 2.89581,-3.01815 6.01874,-3.32434 -0.007,-0.66953 -0.0786,-1.4135 0.18243,-2.05207 0.27159,-0.66286 0.84624,-1.0823 1.54149,-1.38183 3.53057,-1.52238 12.52476,-1.41052 16.24758,-0.21291 0.63403,0.20382 1.37877,0.49785 1.76631,1.00976 0.69226,0.91429 0.42283,4.03368 0.39068,5.19607 -0.008,0.29381 -0.10406,0.84552 0.03,1.10122 1.91111,-0.83989 3.25451,-0.68997 5.29064,-0.61443 5.22184,-2.88964 3.26919,-5.80559 4.8183,-6.34018 0.97461,0.14503 1.91066,4.75983 -2.41382,8.10803 1.97236,2.72381 1.60028,5.98266 -1.32186,8.02741 0.91813,1.02524 2.44533,1.45733 3.86953,1.59732 1.37223,0.13257 2.75865,-0.003 4.06278,-0.39377 0.023,-0.19524 0.0401,-0.39046 0.0481,-0.58653 7.06593,-3.13108 7.46543,-11.018 4.53355,-18.05419 -4.07659,-9.78346 -9.44718,-10.07199 -10.75335,-17.68833 8.49558,-3.80231 17.77862,-7.2187 23.17379,-14.98978 -0.75065,-0.43352 -2.11301,-0.6355 -3.01376,-0.92036 -0.0576,-1.04919 3.21265,-2.58678 5.66113,-6.40581 -0.21193,-0.33579 -3.64228,-1.52176 -7.94419,-7.06262 -0.3234,0.44129 -0.73822,0.81749 -1.2051,1.09658 -0.45273,0.30882 -1.04619,0.40704 -1.59888,0.38654 -0.9703,0.0645 -1.95858,-0.19368 -2.76418,-0.74104 -0.75295,-0.47818 -1.31466,-1.1954 -1.74408,-1.96681 -1.25875,-2.32219 -2.38191,-4.7147 -3.48297,-7.11481 -1.10051,-2.43602 -2.22809,-4.86236 -3.20189,-7.35304 -0.40857,-1.01454 -0.76589,-2.14107 -0.47696,-3.23598 0.0508,-0.21538 0.12314,-0.42155 0.21341,-0.61908 -0.89278,-0.7276 -1.85991,-1.42526 -3.00238,-2.19522 0.5352,-0.71268 1.24909,-1.66438 2.07481,-2.68872 -0.15656,-0.20765 -0.31457,-0.41308 -0.47543,-0.61495 -0.87128,-1.09727 -1.75647,-2.18948 -2.71923,-3.20807 -1.28527,1.23279 -2.57321,2.4996 -3.94187,3.75894 -5.16729,-2.95929 -11.12721,-4.203896 -17.07338,-4.71444 1.10141,-1.420382 2.67055,-2.481968 2.54352,-2.987415 -1.58443,-1.09844 -7.54795,0.670908 -8.34059,0.913123 0.19934,-0.806228 1.10207,-3.776106 0.508,-4.414201 z m -44.27378,3.009119 c -0.88059,-0.0027 -1.69892,0.203545 -2.43086,0.674377 -4.73615,3.046524 -3.80958,10.082464 -1.4273,16.530254 0.0999,-0.0889 0.20109,-0.17616 0.30385,-0.262 0.78216,-0.71845 1.783,-1.09155 2.73574,-1.52704 -0.15592,-0.49525 -0.29416,-0.99929 -0.41341,-1.5136 -0.51422,-2.21793 -1.50622,-7.7835 1.90325,-8.38502 0.83627,-0.0324 1.90315,0.38218 3.05975,1.04697 0.83151,-1.42132 1.74307,-2.795814 2.73317,-4.111378 -2.28766,-1.430229 -4.52694,-2.446696 -6.46419,-2.452563 z m 62.00087,23.476091 c 8.84505,0.1136 17.93205,12.87016 27.78072,16.26205 -2.34159,4.16576 -7.32848,8.21433 -11.86749,10.45724 -1.71117,0.79179 -5.83708,2.17245 -7.72821,2.36678 -1.57872,-6.29865 -8.96345,-7.78301 -14.01776,-10.97297 -5.03963,-3.5129 -5.3212,-10.39185 -1.55131,-14.75155 2.45005,-2.43374 4.90739,-3.39337 7.38405,-3.36155 z M 95.54361,121.051 c 9.23229,0.0484 14.48202,10.6166 8.6093,17.30747 -3.4522,3.96788 -13.44506,5.57558 -14.9996,13.13719 -0.0343,0.19997 -0.0284,0.19333 -0.12972,0.37207 -9.00875,0.10509 -18.58799,-4.98283 -24.39334,-11.01328 13.92274,-6.04679 16.06029,-16.7507 27.92854,-19.46497 1.03243,-0.23609 2.02975,-0.34348 2.98482,-0.33848 z m 20.24166,19.02003 c 9.96682,-0.26643 5.48632,7.65094 -0.3452,7.84242 -2.46484,-0.049 -5.79853,-1.91638 -6.00687,-4.26538 -0.23759,-2.68238 4.14875,-3.45114 6.35207,-3.57704 z m -12.86277,8.40827 c 0.79142,-0.0225 1.78374,0.97116 2.20244,1.23714 6.45099,4.48834 12.49545,1.7987 13.66324,2.23397 1.17081,1.00588 -2.16585,2.08558 -2.95381,2.20297 -6.82133,1.72686 -14.70781,-3.5281 -13.60744,-5.24826 0.19042,-0.29781 0.43175,-0.41831 0.69557,-0.42582 z m -54.43958,6.91224 c 0.74043,-0.0292 5.85566,2.08873 8.64287,5.4622 -6.98932,0.86905 -12.07788,5.00052 -16.29563,9.98234 -0.46149,-2.05381 -1.17473,-4.72947 -2.04122,-6.6828 2.2467,-4.0333 5.54169,-6.68745 9.69398,-8.76174 z m 12.85192,13.60331 c 0.85611,2.29619 1.1848,5.76201 1.39631,8.18296 -9.34298,1.50541 -15.75488,7.81226 -18.0697,13.61674 -0.0702,0.17619 -0.14302,0.28919 -0.31626,0.35346 -1.26193,-2.55856 -2.8074,-8.25722 -2.62,-11.27579 0.0761,-1.22712 7.35692,-10.51258 19.60965,-10.87737 z m 2.12907,15.42024 c 0.41286,0.65863 -0.17065,2.3558 2.37609,6.87194 -4.04677,4.39142 -5.66123,7.69674 -5.84718,13.5015 -3.99609,-1.24846 -6.95663,-2.81966 -8.92194,-4.72013 0.7944,-5.21648 4.57873,-12.07099 12.39303,-15.65331 z" />
    <path
       fill="#fefefe"
       d="m 116.51404,176.50505 c 2.11743,-0.0886 7.03802,0.0395 8.71169,0.93477 2.8398,1.51904 -5.40853,2.14428 -6.01345,2.17857 -1.74495,0.041 -8.88386,-0.0448 -9.41146,-1.63762 0.17219,-1.20428 5.5491,-1.40905 6.71322,-1.47572 z"
       id="path7-9"
       style="stroke-width:0.0488924" />
    <path
       fill="#fefefe"
       d="m 118.11945,182.2441 c 0.27508,0.21857 1.14252,3.57953 1.509,4.30619 0.54215,0.34095 2.92113,1.34619 3.58878,1.59334 -1.11242,0.44856 -2.52204,1.04666 -3.59331,1.55285 -0.55621,1.18811 -0.89858,3.20144 -1.42116,4.50286 -0.43222,-0.66142 -0.97739,-3.39952 -1.46632,-4.41524 -0.62399,-0.46191 -2.83228,-1.33809 -3.68067,-1.70572 0.98595,-0.38381 2.87145,-1.07379 3.70224,-1.54332 0.51758,-1.10857 0.84587,-3.02048 1.36144,-4.29096 z"
       id="path8-4"
       style="stroke-width:0.0488924" />
    <path
       fill="#fefefe"
       d="m 107.46251,182.16363 c 0.18071,-0.0238 0.16967,-0.0281 0.34388,0.0176 0.13501,0.22047 0.31022,8.21475 0.34686,9.39999 -0.54969,-0.0138 -2.57373,-0.27999 -2.5396,-0.86618 1.30117,-1.97525 2.1335,-4.11143 0.43223,-6.15476 -0.32983,-0.39571 -0.76354,-0.62381 -1.12197,-1.09429 0.0431,-0.0638 0.0883,-0.12667 0.13502,-0.18857 0.58282,-0.75382 1.46986,-0.94904 2.40358,-1.11381 z"
       id="path9-8"
       style="stroke-width:0.0488924" />
    <path
       fill="#fefefe"
       d="m 94.41953,128.45648 c 0.73721,-0.31478 1.65968,-0.44272 2.41818,-0.17732 1.07564,0.37637 2.041,1.28252 2.43568,2.30358 0.45384,1.17409 0.32329,2.65746 -0.33182,3.73838 -1.75045,2.88823 -5.39414,1.93184 -6.21172,-0.91886 -0.37063,-1.2923 -0.23474,-2.57553 0.32244,-3.69135 0.27141,-0.54355 0.78904,-1.00757 1.36724,-1.25443 z"
       id="path22-8"
       style="stroke-width:0.0488924" />
    <path
       fill="#fefefe"
       d="m 126.74026,125.57901 c 4.44018,-0.14861 5.42761,7.09257 0.9317,7.99224 -4.05513,0.17186 -5.25592,-4.92795 -2.81821,-7.17056 0.58532,-0.539 1.08884,-0.68976 1.88651,-0.82168 z"
       id="path25-2"
       style="stroke-width:0.0488924" />
    <path
       fill="#94a4b7"
       d="m 71.49857,111.60526 c 2.2143,0.14578 2.73685,2.11772 2.58524,4.0894 -0.39185,5.09376 -1.69836,11.69537 -4.92971,15.76996 -0.75221,0.94826 -2.01004,1.25095 -3.13638,1.25544 -1.00224,-0.0463 -2.18783,-0.52599 -2.59159,-1.55204 -0.18521,-0.40693 0.50774,-0.96361 0.82206,-1.21523 2.04708,-1.63804 2.86226,-3.4163 3.82058,-5.8555 0.69348,-1.72984 1.20598,-3.52689 1.5293,-5.36257 0.32993,-1.81213 0.31988,-3.74491 0.47704,-5.57213 0.0709,-0.82338 0.56647,-1.41499 1.42346,-1.55733 z"
       id="path76"
       style="stroke-width:0.264583" />
    <path
       fill="#94a4b7"
       d="m 142.13491,106.63435 c 1.35996,-0.0489 2.40242,1.45116 2.89375,2.54838 2.38283,5.32236 4.87362,10.5926 7.63614,15.72869 0.31935,0.59372 -0.65061,1.76159 -1.35785,1.95553 -0.33284,0.009 -0.67071,0.022 -1.00356,0.008 -0.81994,-0.0349 -1.55628,-0.51964 -2.08333,-1.12527 -1.06601,-1.22476 -6.33016,-12.9122 -7.15195,-15.181 -0.19791,-0.54636 -0.47043,-1.24328 -0.40667,-1.83012 0.10504,-0.96917 0.76941,-1.51215 1.47347,-2.10415 z"
       id="path77"
       style="stroke-width:0.264583" />
    <path
       fill="#6265f3"
       d="m 103.38483,81.175 h 6.92361 c 0.37016,0.09384 0.712,0.12712 1.0848,0.154686 14.11049,1.043493 26.62264,9.631881 33.54466,21.841054 0.38233,0.67445 0.98955,1.62875 1.55972,2.14625 l 0.0815,0.0731 c 0.45481,0.13576 1.28243,0.249 1.74889,0.29554 3.48827,0.34806 5.37395,2.85178 6.80376,5.76511 1.14221,2.3278 1.87563,4.04945 2.01348,6.67994 0.0987,1.88198 -1.13109,4.99427 -3.2938,5.02972 -0.31379,-0.12038 -0.57017,-0.3675 -0.72707,-0.6678 -2.62943,-5.03476 -4.76885,-10.3386 -7.46178,-15.33811 -0.79084,-1.46809 -2.81252,-1.5888 -3.84281,-2.77723 -0.61965,-0.71506 -1.20571,-1.59654 -1.77906,-2.36333 -0.95594,-1.27506 -1.9603,-2.5131 -3.01096,-3.711446 -4.54474,-5.131858 -12.32005,-9.683697 -18.9857,-11.249104 -3.0615,-0.718979 -7.53348,-1.438883 -10.69102,-1.386866 -7.73086,0.12737 -15.7136,2.181701 -22.27236,6.319969 -5.60361,3.434054 -10.41691,8.141917 -13.3731,14.074117 -0.98399,1.97437 -2.18916,4.55247 -3.02419,6.61569 -0.34475,0.85116 -0.28178,2.90962 -0.44847,3.90181 -0.19499,1.1594 -0.34528,2.40004 -0.65405,3.55415 -0.75856,2.7768 -2.23626,7.06543 -4.57279,8.84528 -1.57189,1.19724 -3.78645,-0.363 -4.55269,-1.85922 -1.2274,-2.39713 -1.11733,-5.47476 -0.43391,-8.02482 0.7231,-2.69742 2.37331,-5.4012 4.64105,-7.0395 0.55431,-0.37862 1.83118,-0.82497 2.5781,-1.25386 l 0.10531,-0.0611 c 0.70961,-1.13056 1.06204,-2.36246 1.62189,-3.53928 0.87498,-1.83888 1.83171,-3.87209 2.86147,-5.61961 5.43375,-9.240418 14.27454,-15.980414 24.62319,-18.771815 1.91029,-0.506537 3.69649,-0.943957 5.65864,-1.235218 0.92763,-0.137672 2.36008,-0.148808 3.18241,-0.372414 z"
       id="path78"
       style="stroke-width:0.264583" />
    <path
       style="fill:#04b8d6;fill-opacity:1;stroke-width:0.0484201"
       d="m 117.43336,160.73831 c 0.0351,0.0138 -1.20288,3.70765 0.70075,5.2002 2.5428,2.38857 2.9306,5.95559 -0.66199,7.67705 1.1208,-2.68077 -1.27236,-4.17993 -2.76625,-6.08128 -1.75448,-2.48476 0.15825,-5.47359 2.72749,-6.79597 z"
       id="path125" />
    <path
       fill="#6265f3"
       d="m 172.7731,89.25555 c 0.53473,0.02603 0.94086,0.411427 0.94668,0.961813 0.0333,3.236304 -0.0122,6.481207 0.005,9.718887 0.005,0.88411 -0.004,1.48699 -0.30506,2.31772 -0.49186,1.35986 -1.95024,1.95652 -3.29671,1.75337 -0.75591,-0.10993 -1.43563,-0.52104 -1.88383,-1.13985 -0.3765,-0.52472 -0.52652,-1.13422 -0.41593,-1.7726 0.12674,-0.71813 0.53473,-1.35602 1.13348,-1.77213 0.8882,-0.621559 2.2643,-0.657727 3.28797,-0.45376 l 0.081,0.01685 c 0.01,-1.826207 0.007,-3.652441 -0.009,-5.478595 -2.34792,0.572691 -5.55811,0.944801 -7.87797,1.719527 -0.18124,0.06048 -0.1823,0.198888 -0.22675,0.363406 -0.0487,2.58482 0.0881,5.195042 -0.0437,7.774682 -0.0886,1.73005 -1.86346,3.00905 -3.54753,2.77384 -0.76068,-0.1106 -1.44568,-0.52044 -1.90315,-1.13851 -1.18136,-1.60395 0.11404,-3.61852 1.88251,-3.93988 0.59082,-0.10737 1.52321,-0.0802 2.11561,0.0275 l 0.0868,0.0164 c 0.0323,-3.011254 -0.064,-6.080897 0.01,-9.076562 1.05225,-0.964115 3.33349,-1.296432 4.75245,-1.592183 z"
       id="path127"
       style="stroke-width:0.264583" />
    <path
       fill="#6265f3"
       d="m 47.81767,90.800512 c 1.22661,1.028303 2.29024,2.228426 3.63009,3.194711 1.27952,0.922681 0.55641,3.27197 0.0579,4.556495 -0.36565,-2.466895 -0.50456,-2.747089 -2.87364,-3.581664 -0.0122,0.964485 0.003,1.952572 0.0362,2.91711 0.0529,1.554846 0.29977,2.728756 -0.0405,4.264656 -0.1532,0.52494 -0.32174,1.01045 -0.76359,1.35467 -1.13824,0.88609 -3.32052,1.11046 -4.29657,-0.1307 -0.80275,-1.02077 -0.48577,-2.43655 0.52308,-3.15648 1.02076,-0.72866 2.16006,-0.68178 3.34619,-0.5147 -0.0818,-2.547669 0.005,-5.170325 -0.0236,-7.723898 -0.006,-0.471673 0.045,-0.852646 0.40428,-1.1802 z"
       id="path128"
       style="stroke-width:0.264583" />
    <path
       fill="#6265f3"
       d="m 38.64253,88.694749 c 0.95204,0.79812 1.77757,1.729598 2.8175,2.479582 0.9931,0.716141 0.43186,2.539546 0.045,3.536533 -0.2838,-1.914686 -0.39162,-2.132159 -2.23038,-2.779916 -0.009,0.748588 0.002,1.515493 0.0281,2.264121 0.0411,1.206801 0.23267,2.117928 -0.0314,3.310025 -0.1189,0.407428 -0.24971,0.784258 -0.59266,1.051427 -0.88344,0.687741 -2.57722,0.861879 -3.33479,-0.101446 -0.62305,-0.792267 -0.37703,-1.891132 0.40599,-2.449908 0.79227,-0.565553 1.67654,-0.529163 2.59715,-0.399481 -0.0634,-1.977381 0.004,-4.012961 -0.0183,-5.994922 -0.004,-0.366089 0.0349,-0.661783 0.31379,-0.916015 z"
       id="path129"
       style="stroke-width:0.205357" />
    <path
       id="rect131"
       style="fill:#04b8d6;fill-opacity:1;stroke:#000000;stroke-width:1.87428;stroke-linecap:round;stroke-linejoin:round;stroke-opacity:0"
       d="m 166.22281,121.43674 c 0.63458,0 1.14541,0.51086 1.14541,1.14542 v 2.05006 c 0,0.63456 -0.51083,1.14541 -1.14541,1.14541 -0.63455,0 -1.1454,-0.51085 -1.1454,-1.14541 v -2.05006 c 0,-0.63456 0.51085,-1.14542 1.1454,-1.14542 z" />
    <path
       id="path133"
       style="fill:#04b8d6;fill-opacity:1;stroke:#000000;stroke-width:1.87428;stroke-linecap:round;stroke-linejoin:round;stroke-opacity:0"
       d="m 169.56948,118.61652 c 0.63457,0 1.1454,0.51086 1.1454,1.14542 v 7.23926 c 0,0.63456 -0.51083,1.14542 -1.1454,1.14542 -0.63455,0 -1.14541,-0.51086 -1.14541,-1.14542 v -7.23926 c 0,-0.63456 0.51086,-1.14542 1.14541,-1.14542 z" />
    <path
       id="path134"
       style="fill:#04b8d6;fill-opacity:1;stroke:#000000;stroke-width:1.87428;stroke-linecap:round;stroke-linejoin:round;stroke-opacity:0"
       d="m 173.06655,114.93144 c 0.63458,0 1.14541,0.51085 1.14541,1.14541 v 14.75985 c 0,0.63456 -0.51083,1.14541 -1.14541,1.14541 -0.63455,0 -1.14541,-0.51085 -1.14541,-1.14541 v -14.75985 c 0,-0.63456 0.51086,-1.14541 1.14541,-1.14541 z" />
    <path
       id="path135"
       style="fill:#04b8d6;fill-opacity:1;stroke:#000000;stroke-width:1.87428;stroke-linecap:round;stroke-linejoin:round;stroke-opacity:0"
       d="m 176.41681,118.17533 c 0.63458,0 1.14541,0.51085 1.14541,1.14541 v 8.4316 c 0,0.63456 -0.51083,1.14541 -1.14541,1.14541 -0.63455,0 -1.14541,-0.51085 -1.14541,-1.14541 v -8.4316 c 0,-0.63456 0.51086,-1.14541 1.14541,-1.14541 z" />
    <path
       id="path136"
       style="fill:#04b8d6;fill-opacity:1;stroke:#000000;stroke-width:1.87428;stroke-linecap:round;stroke-linejoin:round;stroke-opacity:0"
       d="m 179.82023,120.46201 c 0.63457,0 1.1454,0.51085 1.1454,1.14541 v 4.28367 c 0,0.63456 -0.51083,1.14542 -1.1454,1.14542 -0.63455,0 -1.14541,-0.51086 -1.14541,-1.14542 v -4.28367 c 0,-0.63456 0.51086,-1.14541 1.14541,-1.14541 z" />
    <path
       id="path137"
       style="fill:#04b8d6;fill-opacity:1;stroke:#000000;stroke-width:1.87428;stroke-linecap:round;stroke-linejoin:round;stroke-opacity:0"
       d="m 183.27682,109.71994 c 0.63458,0 1.14541,0.51086 1.14541,1.14541 v 25.02331 c 0,0.63456 -0.51083,1.14541 -1.14541,1.14541 -0.63455,0 -1.1454,-0.51085 -1.1454,-1.14541 v -25.02331 c 0,-0.63455 0.51085,-1.14541 1.1454,-1.14541 z" />
    <path
       id="path138"
       style="fill:#04b8d6;fill-opacity:1;stroke:#000000;stroke-width:1.87428;stroke-linecap:round;stroke-linejoin:round;stroke-opacity:0"
       d="m 186.83978,114.18694 c 0.63458,0 1.14541,0.51085 1.14541,1.14541 v 16.3552 c 0,0.63456 -0.51083,1.14542 -1.14541,1.14542 -0.63455,0 -1.14541,-0.51086 -1.14541,-1.14542 v -16.3552 c 0,-0.63456 0.51086,-1.14541 1.14541,-1.14541 z" />
    <path
       id="path139"
       style="fill:#04b8d6;fill-opacity:1;stroke:#000000;stroke-width:1.87428;stroke-linecap:round;stroke-linejoin:round;stroke-opacity:0"
       d="m 190.19004,118.28169 c 0.63458,0 1.14541,0.51085 1.14541,1.14541 v 8.59113 c 0,0.63456 -0.51083,1.14542 -1.14541,1.14542 -0.63455,0 -1.14541,-0.51086 -1.14541,-1.14542 v -8.59113 c 0,-0.63456 0.51086,-1.14541 1.14541,-1.14541 z" />
    <path
       id="path140"
       style="fill:#04b8d6;fill-opacity:1;stroke:#000000;stroke-width:1.87428;stroke-linecap:round;stroke-linejoin:round;stroke-opacity:0"
       d="m 193.59346,120.56836 c 0.63457,0 1.1454,0.51086 1.1454,1.14542 v 3.91142 c 0,0.63456 -0.51083,1.14541 -1.1454,1.14541 -0.63455,0 -1.14541,-0.51085 -1.14541,-1.14541 v -3.91142 c 0,-0.63456 0.51086,-1.14542 1.14541,-1.14542 z" />
    <path
       id="path141"
       style="fill:#04b8d6;fill-opacity:1;stroke:#000000;stroke-width:1.87428;stroke-linecap:round;stroke-linejoin:round;stroke-opacity:0"
       d="m 197.15641,121.41922 c 0.63458,0 1.14541,0.51085 1.14541,1.14541 v 1.997 c 0,0.63456 -0.51083,1.14541 -1.14541,1.14541 -0.63455,0 -1.1454,-0.51085 -1.1454,-1.14541 v -1.997 c 0,-0.63456 0.51085,-1.14541 1.1454,-1.14541 z" />
    <path
       id="path142"
       style="fill:#04b8d6;fill-opacity:1;stroke:#000000;stroke-width:1.87428;stroke-linecap:round;stroke-linejoin:round;stroke-opacity:0"
       d="m 200.55986,122.27007 c 0.63457,0 1.1454,0.51086 1.1454,1.14542 v 0.29528 c 0,0.63456 -0.51083,1.14541 -1.1454,1.14541 -0.63455,0 -1.14541,-0.51085 -1.14541,-1.14541 v -0.29528 c 0,-0.63456 0.51086,-1.14542 1.14541,-1.14542 z" />
    <path
       id="path208"
       style="fill:#04b8d6;fill-opacity:1;stroke:#000000;stroke-width:1.99845;stroke-linecap:round;stroke-linejoin:round;stroke-opacity:0"
       d="m 46.6287,125.87125 c -0.67662,0 -1.2213,-0.5447 -1.2213,-1.2213 v -2.18589 c 0,-0.6766 0.54468,-1.2213 1.2213,-1.2213 0.67659,0 1.22129,0.5447 1.22129,1.2213 v 2.18589 c 0,0.6766 -0.5447,1.2213 -1.22129,1.2213 z" />
    <path
       id="path209"
       style="fill:#04b8d6;fill-opacity:1;stroke:#000000;stroke-width:1.99845;stroke-linecap:round;stroke-linejoin:round;stroke-opacity:0"
       d="m 43.06031,128.87831 c -0.67662,0 -1.22129,-0.5447 -1.22129,-1.2213 v -7.71888 c 0,-0.6766 0.54467,-1.2213 1.22129,-1.2213 0.67659,0 1.22129,0.5447 1.22129,1.2213 v 7.71888 c 0,0.6766 -0.5447,1.2213 -1.22129,1.2213 z" />
    <path
       id="path210"
       style="fill:#04b8d6;fill-opacity:1;stroke:#000000;stroke-width:1.99845;stroke-linecap:round;stroke-linejoin:round;stroke-opacity:0"
       d="m 39.33155,132.80754 c -0.67662,0 -1.2213,-0.5447 -1.2213,-1.2213 v -15.73772 c 0,-0.6766 0.54468,-1.2213 1.2213,-1.2213 0.67659,0 1.22129,0.5447 1.22129,1.2213 v 15.73772 c 0,0.6766 -0.5447,1.2213 -1.22129,1.2213 z" />
    <path
       id="path211"
       style="fill:#04b8d6;fill-opacity:1;stroke:#000000;stroke-width:1.99845;stroke-linecap:round;stroke-linejoin:round;stroke-opacity:0"
       d="m 35.75932,129.34873 c -0.67661,0 -1.22129,-0.5447 -1.22129,-1.2213 v -8.99021 c 0,-0.67659 0.54468,-1.22129 1.22129,-1.22129 0.67659,0 1.2213,0.5447 1.2213,1.22129 v 8.99021 c 0,0.6766 -0.54471,1.2213 -1.2213,1.2213 z" />
    <path
       id="path212"
       style="fill:#04b8d6;fill-opacity:1;stroke:#000000;stroke-width:1.99845;stroke-linecap:round;stroke-linejoin:round;stroke-opacity:0"
       d="m 32.13043,126.91056 c -0.67662,0 -1.2213,-0.5447 -1.2213,-1.2213 v -4.56748 c 0,-0.67659 0.54468,-1.22129 1.2213,-1.22129 0.67659,0 1.22129,0.5447 1.22129,1.22129 v 4.56748 c 0,0.6766 -0.5447,1.2213 -1.22129,1.2213 z" />
    <path
       id="path213"
       style="fill:#04b8d6;fill-opacity:1;stroke:#000000;stroke-width:1.99845;stroke-linecap:round;stroke-linejoin:round;stroke-opacity:0"
       d="m 28.44482,138.36431 c -0.67662,0 -1.22129,-0.5447 -1.22129,-1.2213 v -26.68115 c 0,-0.6766 0.54467,-1.2213 1.22129,-1.2213 0.67659,0 1.2213,0.5447 1.2213,1.2213 v 26.68115 c 0,0.6766 -0.54471,1.2213 -1.2213,1.2213 z" />
    <path
       id="path214"
       style="fill:#04b8d6;fill-opacity:1;stroke:#000000;stroke-width:1.99845;stroke-linecap:round;stroke-linejoin:round;stroke-opacity:0"
       d="m 24.64581,133.60136 c -0.67662,0 -1.22128,-0.5447 -1.22128,-1.2213 V 114.9413 c 0,-0.6766 0.54466,-1.2213 1.22128,-1.2213 0.67659,0 1.2213,0.5447 1.2213,1.2213 v 17.43876 c 0,0.6766 -0.54471,1.2213 -1.2213,1.2213 z" />
    <path
       id="path215"
       style="fill:#04b8d6;fill-opacity:1;stroke:#000000;stroke-width:1.99845;stroke-linecap:round;stroke-linejoin:round;stroke-opacity:0"
       d="m 21.0736,129.23533 c -0.67662,0 -1.22129,-0.5447 -1.22129,-1.2213 v -9.16031 c 0,-0.6766 0.54467,-1.2213 1.22129,-1.2213 0.67659,0 1.2213,0.5447 1.2213,1.2213 v 9.16031 c 0,0.6766 -0.54471,1.2213 -1.2213,1.2213 z" />
    <path
       id="path216"
       style="fill:#04b8d6;fill-opacity:1;stroke:#000000;stroke-width:1.99845;stroke-linecap:round;stroke-linejoin:round;stroke-opacity:0"
       d="m 17.4447,126.79716 c -0.67661,0 -1.22129,-0.5447 -1.22129,-1.2213 v -4.17057 c 0,-0.67659 0.54468,-1.22129 1.22129,-1.22129 0.67659,0 1.2213,0.5447 1.2213,1.22129 v 4.17057 c 0,0.6766 -0.54471,1.2213 -1.2213,1.2213 z" />
    <path
       id="path217"
       style="fill:#04b8d6;fill-opacity:1;stroke:#000000;stroke-width:1.99845;stroke-linecap:round;stroke-linejoin:round;stroke-opacity:0"
       d="m 13.64569,125.88993 c -0.67662,0 -1.22129,-0.5447 -1.22129,-1.2213 v -2.1293 c 0,-0.6766 0.54467,-1.2213 1.22129,-1.2213 0.67659,0 1.2213,0.5447 1.2213,1.2213 v 2.1293 c 0,0.6766 -0.54471,1.2213 -1.2213,1.2213 z" />
    <path
       id="path218"
       style="fill:#04b8d6;fill-opacity:1;stroke:#000000;stroke-width:1.99845;stroke-linecap:round;stroke-linejoin:round;stroke-opacity:0"
       d="m 10.01677,124.9827 c -0.67662,0 -1.2213,-0.5447 -1.2213,-1.22129 v -0.31485 c 0,-0.6766 0.54468,-1.2213 1.2213,-1.2213 0.67659,0 1.22129,0.5447 1.22129,1.2213 v 0.31485 c 0,0.67659 -0.5447,1.22129 -1.22129,1.22129 z" />
  </g>
</svg>
