<svg xmlns="http://www.w3.org/2000/svg" width="2776" height="3000"><path d="M1179 389c.64.01.64.01 3.87.07 3.92.09 7.84.19 11.75.31.57.01.57.01 3.45.09 8.79.3 17.49 1.11 26.24 1.98 5.91.58 11.82 1.09 17.73 1.59 1 .08 2 .16 3.03.25 4.09.35 8.19.7 12.28 1.04 3.04.25 6.09.51 9.13.77.47.04.47.04 2.82.23.85.07 1.7.15 2.58.22.75.06 1.5.13 2.27.19 1.85.26 1.85.26 3.85 1.26 1.33.19 2.66.34 4 .46l2.42.24c.85.08 1.7.16 2.58.24 5.87.58 11.63 1.22 17.39 2.5 3.46.74 6.94 1.33 10.42 1.94 14.76 2.58 29.47 5.2 43.97 9.03 2.51.67 5.03 1.32 7.55 1.97 5.89 1.52 11.78 3.07 17.67 4.62.89.23 1.79.47 2.71.71 14.86 3.9 29.53 8.34 44.16 12.98 2.87.91 5.74 1.81 8.6 2.71 20.26 6.34 40.02 13.18 59.53 21.6 1.47.62 2.93 1.24 4.4 1.86 9.76 4.14 19.29 8.77 28.84 13.37 3.63 1.75 7.27 3.48 10.93 5.16 9.35 4.31 18.23 8.97 26.95 14.45 2.17 1.34 4.35 2.64 6.54 3.94 5.99 3.59 11.89 7.33 17.78 11.1 1.05.66 2.11 1.33 3.19 2.02 6.14 3.92 12.1 8.01 17.96 12.33 2.91 2.14 5.87 4.18 8.85 6.21 5.38 3.7 10.61 7.55 15.81 11.52 1.91 1.42 3.88 2.77 5.88 4.07 14.6 10.01 22.06 29.84 27.64 45.88 3.65 10.46 7.62 20.62 12.53 30.56 1.6 3.32 2.93 6.63 4.2 10.09 9.7 26.01 27.2 49.99 48.06 68.22 2.15 1.95 3.93 3.91 5.75 6.16 5.01 5.96 11.51 10.4 17.69 15.06.72.56 1.45 1.11 2.19 1.68 1.92 1.47 3.86 2.9 5.81 4.32.49.36.49.36 2.96 2.2 15.52 11.39 32.07 20.69 49.29 29.24.91.45 1.81.9 2.75 1.37 23.59 11.74 47.89 22.1 73.44 28.81l4.37 1.17c.62.16 1.23.32 1.87.49 2.03.63 4.02 1.37 6.01 2.13 4.44 1.68 8.96 3.01 13.54 4.3.87.24 1.74.49 2.64.75 2.77.79 5.54 1.57 8.32 2.35 1.81.52 3.62 1.03 5.43 1.54 2.71.78 5.43 1.55 8.15 2.32 4.61 1.3 9.22 2.61 13.82 3.95 9.4 2.72 18.79 5.33 28.35 7.44 1.07.24 2.14.49 3.24.74 2.19.49 4.38.98 6.56 1.47 4.31.96 8.61 1.95 12.91 2.93 4.12.94 8.23 1.87 12.35 2.8l-1 3c-1.02.36-2.03.73-3.08 1.1-23.94 8.69-40.62 20.1-51.73 43.71-6.07 13.3-5.54 33.78-1.25 47.57 5.95 14.38 15.08 28.02 27.11 37.95 2.03 1.74 3.81 3.6 5.64 5.55 19.79 19.94 51.73 31.7 79.45 32.4.66.02.66.02 3.99.11 2.07.06 4.14.11 6.21.16 2.02.05 4.03.11 6.05.17.6.01.6.01 3.63.09 2.98.19 2.98.19 5.98 1.19.47 4.68-.96 7.17-3.38 11.12-2.92 4.89-5.66 9.82-8.25 14.89-9.14 17.84-20.7 33.67-33.73 48.88-2.38 2.78-4.68 5.62-6.95 8.49-4.82 6.04-9.47 11.61-15.38 16.62-2.2 1.9-4.32 3.87-6.44 5.85-5.43 5.08-11.06 9.77-16.94 14.3-3.08 2.38-6.06 4.79-8.93 7.41-8.39 7.48-18.01 13.59-27.6 19.39a719 719 0 0 0-11.21 6.93c-.67.41-1.34.83-2.03 1.26-3.42 2.14-6.83 4.28-10.24 6.44-13.15 8.29-26.38 15.87-40.53 22.33-1.78.81-3.55 1.63-5.32 2.45-7.99 3.72-16.04 7.28-24.13 10.76-1.3.57-2.61 1.13-3.91 1.69-3.35 1.45-6.69 2.89-10.04 4.33-1.96.85-3.91 1.69-5.86 2.53-26.97 11.64-26.97 11.64-39.13 16.33-1.15.45-2.31.9-3.5 1.37-11.72 4.54-23.66 8.4-35.59 12.34-4.05 1.34-8.1 2.69-12.14 4.04-9.25 3.1-18.51 6.18-27.77 9.25l-2.67.88c-39.83 13.19-39.83 13.19-59.74 18.58-5.74 1.56-11.41 3.32-17.09 5.1-12.73 3.99-25.55 7.61-38.38 11.25-18.19 5.17-36.3 10.53-54.37 16.12-5.77 1.78-11.55 3.52-17.33 5.24-.89.27-1.79.54-2.71.81-3.52 1.05-7.03 2.1-10.55 3.14-9.2 2.74-18.34 5.57-27.43 8.64-3.97 1.32-7.97 2.58-11.97 3.82-.35.11-.35.11-2.12.65-1.43.45-2.86.89-4.3 1.33-14.17 4.4-28.2 9.08-42.12 14.24-5.52 2.05-11.05 4.08-16.57 6.11-1.96.71-3.91 1.43-5.86 2.15-6.82 2.51-13.66 4.96-20.54 7.32-14.27 4.91-28.33 10.45-42.4 15.9-1.63.64-3.27 1.27-4.9 1.9-12.59 4.87-24.9 10.29-37.22 15.81-6.06 2.72-12.14 5.37-18.23 8.01-24.75 10.73-48.86 21.86-72.54 34.77-5.17 2.81-10.37 5.57-15.58 8.29-26.01 13.64-50.89 28.39-75.21 44.81-3.14 2.11-6.29 4.21-9.44 6.3-14.71 9.8-28.61 20.19-41.91 31.83-4.86 4.23-9.86 8.23-14.96 12.18-4.09 3.18-8.02 6.51-11.86 10-1.95 1.77-3.94 3.48-5.94 5.2-4.93 4.29-9.47 8.97-14.06 13.62l-5 5-2.28 2.28-6.72 6.72c-.79.79-1.58 1.58-2.39 2.4-1.87 1.86-3.74 3.71-5.63 5.55-6.81 6.67-13.11 13.51-18.98 21.05-1.34 1.72-2.69 3.43-4.03 5.14-.94 1.2-1.88 2.4-2.81 3.6a433 433 0 0 1-9.22 11.32c-22.63 27.07-40.16 57.48-55.94 88.94-.38.75-.75 1.5-1.14 2.27-2.42 4.86-4.69 9.76-6.86 14.73-.32.73-.64 1.47-.97 2.22-12.1 28.31-22.3 58.9-28.47 89.07-.57 2.77-1.2 5.52-1.84 8.28-3.01 13.5-4.82 27.09-6.47 40.81-.11.88-.21 1.76-.32 2.67-1.22 10.14-2.18 20.24-2.6 30.45-.15 3.57-.38 7.06-.84 10.6-.78 6.66-.71 13.36-.76 20.06-.01.73-.02 1.46-.02 2.21-.05 5.57-.07 11.13-.09 16.69v2.48c-.07 38.71 2.4 76.69 11.38 114.46.25 1.1.51 2.21.77 3.35 10.32 44.48 23.62 89.23 45.23 129.65.71 1.34 1.41 2.69 2.12 4.04 2.84 5.39 5.73 10.74 8.77 16.02 1.27 2.23 2.52 4.46 3.77 6.69 6.04 10.72 12.27 21.17 19.34 31.25.39.56.79 1.12 1.19 1.7a970 970 0 0 0 7.41 10.37c1.54 2.12 3.07 4.26 4.6 6.39 6.18 8.58 12.39 17.13 18.8 25.54.57.75 1.13 1.5 1.72 2.27 6.3 8.24 12.84 16.55 20.34 23.73 2.55 2.44 3.99 4.52 4.94 8h2l1.03 1.24c5.75 6.76 12.02 12.99 18.28 19.26 1.93 1.92 3.84 3.86 5.76 5.79 6.26 6.29 12.55 12.31 19.54 17.8 4.3 3.44 8.32 7.2 12.39 10.91 4.65 4.18 9.39 8.14 14.35 11.94 2.01 1.56 3.99 3.14 5.96 4.75 13.85 11.28 28.22 21.38 43.69 30.31 2.1 1.23 4.21 2.46 6.31 3.69.97.56 1.94 1.12 2.94 1.7 2.55 1.49 5.09 3.01 7.63 4.55 5.6 3.37 11.26 6.64 16.97 9.85 1.52.85 3.04 1.72 4.56 2.58 13.83 7.84 27.9 14.54 42.59 20.63.93.39 1.86.78 2.82 1.19 19.15 8.04 38.38 15.85 58.5 21.1 4.1 1.09 8.18 2.25 12.27 3.41 5.13 1.45 10.27 2.87 15.41 4.3l2.21.62c11.5 3.2 23.13 5.84 34.79 8.38.72.16 1.44.32 2.18.48 12.16 2.66 24.42 3.61 36.82 4.52-2.5-2.93-5.1-4.07-8.65-5.5-1.16-.47-2.31-.94-3.5-1.42-.62-.25-1.24-.49-1.87-.75-3.28-1.31-6.55-2.66-9.83-3.99-.67-.28-1.35-.55-2.04-.84-15.88-6.47-31.72-13.14-47.17-20.58q-3.435-1.62-6.87-3.21c-22.11-10.32-43.35-22.28-63.07-36.71-.67-.49-1.34-.97-2.03-1.48-28.89-21.02-28.89-21.02-37.96-30.48-1.92-1.95-3.91-3.71-6.01-5.48-8-6.88-14.53-15.27-21-23.56-.78-.99-1.56-1.97-2.37-2.99-6.33-8.05-12.12-16.38-17.63-25.01-.6-.94-1.21-1.88-1.83-2.84-20.65-33.65-28.09-70.93-30.65-109.69-.43-6.38-.96-12.75-1.51-19.11-1.05-12.34-1.81-24.69-2.51-37.05l-.39-6.7c-.58-10.07-1.15-20.15-1.68-30.23-.02-.41-.02-.41-.13-2.47l-.57-11.06c-.36-7.21-.84-14.4-1.41-21.6-1.13-14.08-2-28.16-2.76-42.26-.12-2.31-.25-4.63-.38-6.94-.33-6.03-.66-12.06-.98-18.09-.26-4.82-.53-9.65-.79-14.47-2.14-39.01-2.14-39.01-3.01-56.25-.04-.91-.09-1.82-.14-2.75-.21-4.16-.41-8.32-.61-12.47-.29-5.83-.58-11.65-1.16-17.46-.67-6.91-.87-13.84-1.12-20.77-.09-2.51-.18-5.03-.28-7.54l-.69-18.72c-.19-5.29-.39-10.58-.59-15.88-.09-2.46-.18-4.93-.26-7.4l-.18-4.56c-.02-.68-.04-1.36-.07-2.05-.16-4.28-.68-8.41-1.3-12.64-.15-2.03-.28-4.06-.37-6.1-.06-1.16-.12-2.32-.18-3.51-.02-.62-.02-.62-.17-3.73-.09-1.96-.19-3.92-.29-5.89-.2-4.11-.39-8.23-.59-12.35-.16-3.39-.32-6.79-.49-10.19q-.195-3.81-.36-7.62c-.28-5.61-.73-11.06-1.55-16.61-.29-3.78-.49-7.57-.68-11.35l-.18-3.37c-.2-3.63-.39-7.27-.58-10.9-.03-.63-.03-.63-.2-3.79-.4-7.67-.79-15.33-1.18-23l-.51-10c-1.05-20.03-1.85-40.03-1.92-60.09 0-.4 0-.4-.02-2.43-.05-9.52.44-18.7 2.27-28.07.14-.71.27-1.42.41-2.15 4.54-21.99 16.94-40.69 35.65-53.1 39.46-23.23 86.07-7.23 127 3.29 8.33 2.14 16.66 3.97 25.13 5.46 2.14.38 4.28.77 6.42 1.16 1.16.2 2.32.41 3.52.63 2.74.5 5.47 1.03 8.2 1.57 15.43 3.08 30.97 5.39 46.54 7.66 3.82.56 7.65 1.12 11.47 1.69 3 .45 6 .89 9 1.33 1.41.21 2.82.41 4.23.62 8.15 1.22 16.25 2.14 24.49 2.64 3.84.26 7.58.86 11.38 1.51 62.28 9.75 126.07 10.45 188.98 10.68l7.97.03c12.21.05 24.42.09 36.62.1 1.8 0 3.61.01 5.41.01 19.43.03 38.85-.08 58.28-.58l2.39-.06c11.4-.29 22.74-.97 34.1-1.97 5.11-.42 10.22-.7 15.34-.92 23.51-1.02 46.72-3.3 70.06-6.29l6.82-.87c47.06-5.93 95.75-12.72 141.2-26.71 2.46-.75 4.93-1.47 7.41-2.19 76.46-22.27 76.46-22.27 93.26-48.54 3.65-6.86 4.55-13.44 2.72-21-6.58-18.27-24.38-27.57-41-35.56-18.03-8.42-36.98-14.7-56-20.44l-3.14-.96c-30.75-9.41-62.27-14.86-93.93-20.2q-4.785-.81-9.57-1.65c-31.68-5.55-63.64-9.29-95.73-11.65l-2.51-.18c-.69-.05-1.37-.09-2.08-.14-2.04-.22-2.04-.22-4.15-.7-3.69-.66-7.36-.86-11.09-1.06-.82-.05-1.63-.09-2.47-.14-1.77-.1-3.53-.19-5.3-.29-2.82-.15-5.63-.31-8.45-.47-7.01-.39-14.02-.78-21.03-1.16l-17.72-.99-8.2-.45c-9.12-.5-18.22-1.1-27.32-1.85-.88-.07-1.77-.13-2.68-.2-9.82-.85-19.16-3.19-26.63-9.91-4.39-5.26-5.79-10.44-5.41-17.23 1.22-8.27 4.31-13.63 10.8-18.89 23.42-16.84 50.87-17.15 78.61-14.88.93.16 1.86.32 2.82.48 4.11.67 8.21.93 12.36 1.2 1.81.13 3.63.25 5.45.38 2.82.19 5.65.38 8.47.56 10.08.67 20.1 1.44 30.12 2.68 5.88.73 11.75 1.19 17.66 1.58 21.43 1.53 42.87 3.97 64.1 7.34 5.19.82 10.4 1.54 15.6 2.26 9.74 1.36 19.4 2.76 29.02 4.81 3.83.8 7.67 1.48 11.52 2.15 9.99 1.74 19.94 3.61 29.88 5.56 1.1.22 2.2.43 3.33.65 46.03 9.08 90.35 22.41 133.67 40.35 1.04.43 2.07.85 3.14 1.29 34.49 14.39 68.65 38.1 84.38 73.08 4.94 12.4 6.97 23.66 6.79 37.01l-.03 4.39c-.09 10.4-.68 20.72-1.5 31.09-1.02 13.82-1.21 27.65-1.44 41.49-.01.93-.03 1.85-.05 2.81-.03 1.74-.05 3.48-.08 5.22-.07 4.32-.46 8.35-1.21 12.62-.14 2.31-.24 4.62-.32 6.93a4157 4157 0 0 0-.24 7.95c-.05 1.36-.09 2.73-.13 4.1-.11 3.34-.21 6.68-.31 10.02 6.23-.34 10.94-1.01 16.44-4.19 8.48-4.56 17.31-7.24 26.56-9.81 1.05-.29 2.1-.59 3.18-.89 3.48-.96 6.96-1.88 10.44-2.8 1.06-.28 2.11-.57 3.19-.86 20.32-5.15 41.21-6.01 62.07-5.89 1.13.01 2.26.01 3.43.01 16.89.06 33.14.79 49.69 4.43.92.19 1.84.37 2.79.57 18.9 3.85 36.78 10.31 54.22 18.5q2.64 1.23 5.31 2.43c8.29 3.91 16.06 8.65 23.87 13.44 1.09.67 2.18 1.33 3.31 2.02 8.99 5.58 17.93 11.36 25.69 18.6 2.79 2.59 5.6 5.13 8.49 7.61 15.24 13.3 28.81 27.92 40.14 44.66 1.96 2.86 4.02 5.6 6.12 8.36 5.46 7.48 9.73 15.64 14.06 23.81.37.68.73 1.37 1.11 2.07 13.13 24.57 20.22 51.8 25.89 78.93.25 1.17.49 2.35.75 3.56 2.59 12.43 5.14 24.88 7.06 37.44.11.72.23 1.44.34 2.18 1.71 11.87 2.02 23.79 1.97 35.76 0 1.32 0 2.63-.01 3.99-.06 12.49-.79 24.63-2.56 37.01-.45 3.26-.82 6.52-1.17 9.8-1.1 10.27-2.99 20.33-5.07 30.45-.17.86-.35 1.73-.53 2.62-1.24 6.07-2.5 12.13-3.78 18.19-.15.73-.31 1.47-.47 2.22-5.44 25.79-13.21 50.53-23.53 74.78-.31.74-.62 1.47-.93 2.23-11.26 26.7-25.02 52.66-41.07 76.77-.51.77-1.02 1.55-1.55 2.34-5 7.53-10.24 14.83-15.82 21.94-2.85 3.64-5.48 7.39-8.07 11.22-9.62 14.05-21.52 26.65-33.65 38.56-1.75 1.78-3.38 3.61-5 5.52-4.5 5.17-9.32 10.01-14.16 14.86l-2.66 2.69c-5.31 5.33-10.8 10.24-16.7 14.91-2.78 2.28-5.26 4.74-7.75 7.32-2.73 2.73-5.68 5.17-8.64 7.64h-2v2c-16.05 13.69-33.7 25.27-51.16 37.06-2.68 1.83-5.34 3.7-7.99 5.58-4.7 3.3-9.53 6.31-14.47 9.24-.87.51-1.73 1.02-2.62 1.55-7.85 4.66-15.76 9.18-23.76 13.57-.58.32-1.17.65-1.77.98-38.79 21.44-79.44 35.72-122.34 46.28-.73.18-1.47.36-2.23.55-1.87.46-3.74.91-5.62 1.37-2.79.75-5.38 1.68-8.04 2.82-1.48 16.38-2.27 32.75-2.88 49.19-.79 21.28-1.83 42.55-2.99 63.82-.13 2.41-.26 4.83-.38 7.24l-.63 11.52c-.08 1.42-.15 2.84-.23 4.26-.38 7.3-.95 14.4-2.41 21.57-.52 2.58-.91 5.17-1.29 7.78-3.89 22.8-10.61 43.67-24.19 62.62-.74 1.06-1.48 2.11-2.25 3.2-6.91 9.55-14.76 17.21-23.94 24.55q-2.76 2.205-5.46 4.5c-6.07 5.13-12.36 9.5-19.08 13.7a179 179 0 0 0-7.65 5.11c-26.02 17.38-58.11 26.9-87.48 36.87-2.57.88-5.13 1.75-7.69 2.64-8.64 2.95-17.38 5.43-26.19 7.81-2.16.59-4.31 1.21-6.46 1.83-13.45 3.91-27.11 6.84-40.8 9.79-2.46.54-4.93 1.07-7.39 1.61-11.42 2.47-22.83 4.88-34.32 6.97-5.16.95-10.32 1.93-15.48 2.92-1.14.22-2.27.43-3.45.66-5.51 1.06-10.98 2.18-16.42 3.53-5.6 1.36-11.21 2.03-16.94 2.58-3.23.32-6.19.79-9.3 1.69-4.94 1.39-9.87 1.94-14.95 2.54-5.88.71-11.72 1.46-17.54 2.56-5.22.99-10.35 1.35-15.66 1.6-2.72.26-5.01.66-7.64 1.3-6.05 1.42-12.16 1.71-18.35 2.1-2.33.16-4.66.31-6.99.48-1.03.06-2.05.13-3.1.19-2.47.27-2.47.27-4.47 1.27-2.3.21-4.6.37-6.91.5l-2.06.12c-2.91.18-5.83.34-8.74.5-2.13.13-4.26.25-6.38.38-.64.04-.64.04-3.87.22-3.04.28-3.04.28-5.04 1.28-2.06.21-4.12.36-6.18.48-.65.04-1.29.08-1.95.11-2.18.13-4.35.25-6.53.37-.76.04-1.53.09-2.31.13-19.75 1.1-39.52 1.73-59.29 2.34-5.17.16-10.33.33-15.49.5-31.7 1.04-63.22 1.3-94.93.2l-8.17-.27c-3.3-.1-6.61-.21-9.91-.32l-3.64-.12c-5.54-.2-11-.51-16.51-1.18-3.68-.42-7.37-.57-11.07-.74-1.68-.08-3.35-.17-5.03-.25-2.6-.13-5.2-.25-7.8-.37-2.53-.13-5.07-.25-7.61-.38-.77-.04-1.54-.07-2.34-.11-4.15-.21-8.13-.67-12.24-1.39-1.94-.18-3.88-.33-5.82-.46-1.09-.08-2.19-.16-3.31-.24-2.26-.16-4.52-.31-6.78-.46-5.58-.4-11.06-.94-16.59-1.84-6.65-1.08-13.28-1.58-20-2-7.97-.5-15.79-1.24-23.67-2.55-2.51-.4-4.99-.71-7.52-.95-3.01-.31-5.91-.8-8.87-1.44-4.16-.87-8.28-1.41-12.5-1.87-9.4-1.08-18.61-3.06-27.87-4.96-6.23-1.28-12.49-2.4-18.77-3.46-4.46-.77-8.9-1.68-13.35-2.58q-6.54-1.32-13.11-2.55c-17.29-3.27-34.44-6.94-51.59-10.9-2.67-.61-5.35-1.2-8.04-1.76-11.54-2.41-22.89-5.55-34.25-8.72-7.32-2.04-14.65-3.95-22.07-5.58-4.21-.99-8.3-2.29-12.41-3.59-3.77-1.18-7.56-2.29-11.36-3.4-8.65-2.53-17.27-5.17-25.87-7.88-.74-.23-1.49-.47-2.26-.71-18.96-5.96-37.97-12.02-56.35-19.62-4.58-1.86-9.2-3.61-13.83-5.36-8.43-3.19-16.83-6.49-25.19-9.87-4.24-1.7-8.48-3.37-12.74-5.04-14.38-5.63-28.48-11.6-42.33-18.46-4.35-2.15-8.72-4.26-13.08-6.38-41.25-20.03-41.25-20.03-53.85-26.75-.69-.36-1.38-.73-2.1-1.11-21.97-11.74-43.53-24.18-64.52-37.6-3.59-2.29-7.2-4.54-10.81-6.79-9.95-6.21-19.9-12.41-29.47-19.2-3.36-2.38-6.76-4.71-10.16-7.04-.67-.47-1.34-.93-2.03-1.4-3.81-2.62-7.64-5.23-11.47-7.83l-2.52-1.72c-1.6-1.08-3.2-2.17-4.81-3.25-4.65-3.17-9.14-6.5-13.57-9.98-3.24-2.54-6.54-4.99-9.85-7.45-5.81-4.34-11.54-8.75-17.23-13.25q-5.76-4.545-11.58-9c-13.66-10.48-27.26-21.01-39.96-32.67-6.1-5.6-12.42-10.93-18.75-16.27-3.68-3.11-7.34-6.25-10.95-9.44-1.32-1.16-2.64-2.31-3.96-3.46-3.41-2.96-6.75-5.9-9.88-9.16v-2h-2c-.17-.21-.17-.21-1-1.26-5.32-6.36-11.38-11.87-17.48-17.47-2.91-2.69-5.73-5.45-8.52-8.27-1.03-1.02-2.06-2.03-3.09-3.05-5.26-5.21-10.44-10.41-15.24-16.06-2.68-3.04-5.6-5.83-8.49-8.68-1.96-1.99-3.8-4.02-5.62-6.15-2.72-3.17-5.59-6.12-8.56-9.06-6.68-6.62-12.61-13.72-18.55-21.01-2.62-3.19-5.28-6.34-7.95-9.49-4.22-4.96-8.35-9.98-12.46-15.03-1.78-2.16-3.61-4.26-5.48-6.35-8.13-9.22-15.23-19.33-22.31-29.36-2.06-2.9-4.12-5.8-6.19-8.7-.41-.57-.82-1.15-1.24-1.74-3.07-4.3-6.19-8.56-9.32-12.82-11.2-15.24-21.94-30.67-31.9-46.75-2.36-3.8-4.78-7.55-7.29-11.25-15.64-23.33-29.58-47.6-41.97-72.81-3.21-6.52-6.61-12.9-10.15-19.25-10.78-19.49-20.29-39.64-28.66-60.28-2.65-6.51-5.47-12.95-8.3-19.39-9.62-21.97-17.54-44.31-25.03-67.09q-1.86-5.655-3.75-11.31c-3.05-9.06-5.98-18.14-8.7-27.31-.37-1.25-.75-2.5-1.13-3.79-4.68-15.72-9.18-31.48-13.62-47.27-.28-.99-.56-1.97-.84-2.99-3.25-11.54-5.69-23.17-7.95-34.94-.77-3.98-1.63-7.92-2.57-11.86-2.14-9.11-3.85-18.31-5.6-27.5-.6-3.14-1.21-6.27-1.81-9.41-1.81-9.4-3.55-18.78-4.81-28.27-.42-3.02-.92-6-1.45-9-1.15-6.79-1.81-13.61-2.47-20.47-.66-6.88-1.33-13.74-2.44-20.56-1.56-9.79-2.52-19.65-3.56-29.5-.11-1.04-.22-2.08-.33-3.15-1.67-15.71-3.11-31.41-3.98-47.19-.13-2.14-.28-4.29-.45-6.44-1.07-14.24-.98-28.51-.99-42.78v-2.15c-.03-38.55 1.62-77.06 5.88-115.39.39-3.55.74-7.1 1.08-10.65 1.57-15.96 3.53-31.85 5.74-47.74.48-3.45.93-6.9 1.39-10.36 3.01-23.02 6.81-45.84 11.16-68.65.19-.99.38-1.97.57-2.99 7.38-38.69 16.73-76.24 28.03-113.96 1.73-5.77 3.43-11.55 5.11-17.33 11.4-39.27 24.44-77.9 39.75-115.83 1.46-3.66 2.86-7.35 4.25-11.04 1.74-4.62 3.51-9.24 5.29-13.85.19-.5.19-.5 1.17-3.05 6.22-16 13.29-31.42 20.87-46.82.34-.68.67-1.37 1.02-2.07.34-.68.67-1.36 1.02-2.06 3.24-6.61 6.31-13.3 9.36-20 3.57-7.83 7.29-15.51 11.4-23.07 3.02-5.57 5.73-11.27 8.33-17.05 1.91-4.18 4.09-8.02 6.57-11.88 2.07-3.28 3.94-6.67 5.82-10.06.43-.77.85-1.54 1.29-2.33 3.43-6.21 6.71-12.49 9.96-18.8 5.66-10.93 11.65-21.65 17.77-32.33 1.24-2.16 2.46-4.33 3.67-6.51 3.69-6.6 7.64-12.9 11.89-19.14 3.22-4.77 6.17-9.66 9.05-14.64 3.64-6.3 7.52-12.3 11.81-18.19 2.1-3.06 4.03-6.06 5.81-9.31 2.16-3.86 4.85-7.23 7.6-10.67C443 809 443 809 445 806h3c.51 1.17 1.02 2.33 1.55 3.53 4.32 9.79 8.85 19.46 13.64 29.03.48.98.97 1.95 1.47 2.95 6.79 13.47 13.86 26.47 23.04 38.47 2.21 2.9 4.32 5.86 6.42 8.83 2.8 3.87 5.72 7.24 9.18 10.53 1.78 1.74 3.39 3.57 5.01 5.47 6.63 7.67 13.92 14.7 21.69 21.19.72.61 1.45 1.22 2.19 1.86 6.68 5.51 13.78 10.27 21.03 14.98 1.59 1.04 3.18 2.09 4.76 3.14 6.44 4.21 13.1 7.67 20.02 11.02 1.52.79 3.04 1.58 4.56 2.38 7.1 3.53 14.45 6.52 21.78 9.53 1.76.72 3.52 1.45 5.27 2.19 15.72 6.57 31.72 11.45 48.11 15.99 2.33.65 4.65 1.31 6.97 1.99 8.54 2.38 17.47 3.09 26.31 2.92l3 1c25.46 1.41 49.86-.38 74-9 .83-.28 1.66-.56 2.51-.84 6.87-2.38 13.14-5.38 19.49-8.91.48-.26.48-.26 2.91-1.6 8.87-4.96 16.94-10.46 24.46-17.33 1.63-1.32 1.63-1.32 3.95-2.64 4.79-3 8.52-7.19 12.49-11.18.87-.85 1.73-1.7 2.62-2.57 9.56-9.55 16.76-20.32 23.57-31.93.66-1.09 1.32-2.19 2-3.32 10.66-18.29 15.29-39.53 19.62-60.06.48-2.2.95-4.4 1.43-6.61 3.46-16.17 6.53-32.39 9.23-48.7a3455 3455 0 0 1 4.67-27.34c1.97-11.36 4.18-22.62 6.77-33.86 14.56-63.41 26.92-134.3-9.28-192.93C887.4 523.2 879.03 513.39 870 504c-.54-.56-1.07-1.12-1.62-1.69-6.11-6.32-12.11-12.32-19.38-17.31-1.59-6.38 3.69-12.47 7-18 8.96-14.46 19.36-27.63 31-40 .72-.03 1.43-.05 2.17-.08.99-.05 1.99-.11 3.02-.17.96-.05 1.92-.09 2.92-.14 3.47-.54 6.47-1.36 9.81-2.42 7.63-2.43 15.34-4.2 23.14-5.94 1.52-.34 3.04-.69 4.56-1.03 3.98-.9 7.96-1.79 11.95-2.68 3.24-.72 6.49-1.45 9.74-2.19 3.19-.72 6.38-1.43 9.57-2.15 1.51-.33 3.02-.67 4.53-1.01 13.51-3.04 27.06-5.79 40.78-7.75l5.09-.75c.81-.12 1.61-.23 2.44-.35 3.16-.47 6.31-.97 9.47-1.46 3.66-.58 7.31-1.06 11-1.44C1041 397 1041 397 1043 396c1.63-.2 3.26-.35 4.89-.46 1.02-.08 2.04-.16 3.09-.24 1.1-.08 2.21-.16 3.34-.24 1.14-.08 2.27-.17 3.44-.26 3.64-.27 7.29-.53 10.93-.8 3.62-.27 7.25-.53 10.87-.8 2.26-.17 4.51-.34 6.77-.5 4.13-.31 8.21-.63 12.32-1.23 4.33-.61 8.64-.81 13.01-1.01.46-.02.46-.02 2.81-.13l9.03-.39c1.03-.05 2.06-.09 3.13-.14 17.47-.74 34.88-1.14 52.37-.8m207 202c.59 3.32 1.61 4.99 3.95 7.39.6.63 1.2 1.26 1.82 1.9.63.65 1.27 1.29 1.92 1.96 4.31 4.44 8.29 8.9 11.94 13.9 1.9 2.57 4.01 4.94 6.12 7.35 5.5 6.44 9.8 13.51 14.17 20.75 1.38 2.24 2.88 4.4 4.39 6.56 5.19 7.72 8.31 16.25 10.69 25.19-7.49-.39-14.95-.83-22.39-1.79-26.04-3.31-53.6-1.7-79.14 4.22-2.59.6-5.19 1.17-7.78 1.73-5.58 1.22-11.14 2.52-16.69 3.84-.93.22-1.85.44-2.81.66-24.54 5.87-47.29 14.82-69.99 25.79-2.89 1.4-5.8 2.78-8.71 4.15-12.19 5.81-23.33 12.82-34.49 20.4-1.94 1.31-3.89 2.61-5.83 3.92-1.95 1.32-3.91 2.63-5.86 3.96-.89.6-1.79 1.21-2.71 1.83-5.01 3.42-9.87 6.97-14.62 10.73-1.9 1.5-3.84 2.94-5.79 4.37-4.68 3.48-9.1 7.26-13.55 11.02C1148 773 1148 773 1145 775v2c-.29.13-.29.13-1.77.77-2.47 1.36-3.99 2.86-5.92 4.92-3.41 3.5-6.97 6.44-10.87 9.38-3.87 3.06-7.45 6.43-11.06 9.79C1113 804 1113 804 1110 806v2c-.3.13-.3.13-1.79.8-2.31 1.25-3.73 2.55-5.52 4.45-2.3 2.38-4.63 4.59-7.19 6.69-2.53 2.12-4.68 4.35-6.81 6.87-2.49 2.94-5.09 5.51-7.99 8.03-6.45 5.75-12.53 11.84-18.62 17.95-1.97 1.97-3.94 3.94-5.91 5.9-1.26 1.27-2.52 2.53-3.79 3.79l-1.76 1.76c-2.33 2.34-4.51 4.61-6.52 7.23-2.41 2.9-5.09 5.2-7.95 7.64-3.62 3.18-6.98 6.6-10.37 10.01-.74.75-1.49 1.49-2.25 2.26-2.35 2.35-4.69 4.7-7.03 7.06-1.6 1.6-3.2 3.21-4.8 4.82-11.7 11.72-11.7 11.72-11.7 13.74l-3 1v2c-.59.27-1.18.53-1.79.8-2.28 1.24-3.75 2.51-5.57 4.35-.63.63-1.27 1.27-1.92 1.93-.68.69-1.35 1.38-2.05 2.09-.71.71-1.41 1.42-2.14 2.16-2.27 2.28-4.52 4.57-6.78 6.86-2.24 2.27-4.49 4.54-6.73 6.8-1.4 1.41-2.79 2.82-4.18 4.24-3.87 3.91-7.85 7.61-12.04 11.18-1.81 1.6-3.5 3.28-5.18 5.03-3.47 3.55-7.3 6.53-11.21 9.59-2.77 2.26-5.24 4.71-7.72 7.27-2.34 2.35-4.84 4.48-7.35 6.63a199 199 0 0 0-5.25 4.83c-7.06 6.72-14.37 12.49-22.38 18.04-7.06 4.97-13.79 10.42-20.45 15.92-8.79 7.23-17.86 13.87-27.26 20.28-.55.37-1.09.75-1.66 1.13-7.88 5.38-15.79 10.74-23.71 16.07-3.88 2.62-7.76 5.25-11.63 7.88-14.74 9.98-29.81 19.04-45.82 26.84-3 1.47-5.95 3.01-8.89 4.6-28.35 15.24-58.11 27.45-89.11 36.11-8.25 2.32-16.22 5.18-24.18 8.37 2.76 5.52 7.15 6.49 12.62 9.12.49.24.49.24 2.97 1.44 12.12 5.83 24.35 10.95 37.1 15.25 1.26.43 2.53.86 3.79 1.29 2.58.88 5.17 1.76 7.75 2.63 3.54 1.19 7.07 2.39 10.6 3.6 48.68 16.52 98.05 29.77 148.92 37.36.93.14 1.87.28 2.83.43 1.75.25 3.5.51 5.24.76 5.01.74 9.96 1.64 14.92 2.68 3.54.69 7.11 1.03 10.7 1.38 6.19.63 12.3 1.46 18.44 2.5 18.69 3.08 37.61 4.66 56.5 5.91.53.04.53.04 3.21.22l2.81.18c2.6.25 2.6.25 4.87.74 3.93.73 7.85.87 11.84 1.05.93.04 1.86.08 2.82.13 47.09 2.11 94.33 2.19 141.45.45 1.09-.03 2.18-.07 3.3-.11 11.54-.43 22.96-1.16 34.42-2.55 5.19-.61 10.38-.98 15.59-1.34 10.9-.8 21.69-2.13 32.52-3.58 10.4-1.39 20.8-2.55 31.23-3.59 1.1-.11 2.2-.22 3.33-.34.96-.09 1.93-.19 2.92-.28 2.31-.33 2.31-.33 4.31-1.33 2.33-.35 4.66-.66 7-.95 1.5-.18 3-.37 4.5-.56.8-.1 1.6-.2 2.42-.3 41.52-5.21 82.25-13.08 123.08-22.19 1.01-.22 2.01-.45 3.05-.68 11.4-2.53 22.7-5.23 33.95-8.32 2.43-.65 4.86-1.29 7.29-1.93 12.03-3.19 24.06-6.39 36.01-9.86 4.57-1.32 9.15-2.61 13.74-3.85 10.61-2.89 21.12-5.95 31.52-9.55.94-.32 1.87-.64 2.83-.97 13.56-4.79 13.56-4.79 16.61-7.84-.6-7.23-1.43-14.38-2.44-21.56-1.36-9.95-2.23-19.9-2.91-29.92-.04-.52-.04-.52-.22-3.15l-.18-2.78c-.25-2.58-.72-5.05-1.25-7.59-.44-5.54.24-10.52 1.44-15.92.57-3.13.88-6.22 1.16-9.39 6.06-67.81 42.73-127.91 89.78-175.19.64-.65 1.28-1.29 1.94-1.96 4.4-4.38 8.95-8.51 13.68-12.54.89-.77 1.79-1.55 2.71-2.35 7.13-6.08 14.57-11.45 22.41-16.59 1.2-.78 2.39-1.57 3.58-2.36 13.36-8.79 26.95-17.08 40.94-24.82 2.82-1.58 5.6-3.2 8.36-4.88l-1-4c-1.96-.93-3.93-1.86-5.89-2.79-1.72-.82-3.44-1.63-5.15-2.45-4.15-1.97-8.3-3.92-12.48-5.82-9.59-4.38-18.58-9.3-27.48-14.94-.7-.44-1.4-.89-2.13-1.34-4.99-3.16-9.95-6.39-14.87-9.66-.98-.64-1.95-1.29-2.96-1.95-11.79-8.15-21.86-18.76-31.89-28.94-1.94-1.91-3.94-3.67-6.03-5.42-7.98-6.85-15.03-14.99-21.35-23.38-3.76-4.9-7.78-9.59-11.77-14.31-.61-.72-1.22-1.45-1.84-2.19-4.06-4.74-8.43-9.1-12.87-13.49-2.62-2.65-4.94-5.43-7.29-8.32-1.66-1.68-3.32-3.34-5-5-.95-.95-1.89-1.91-2.83-2.87-15.24-15.41-32.24-28.18-50.39-39.97-1.3-.85-2.59-1.69-3.88-2.54-10.31-6.79-20.62-12.74-31.92-17.73-1.9-.85-3.77-1.76-5.64-2.69-10.43-5.16-21.25-8.72-32.34-12.2-.48-.15-.48-.15-2.9-.92-14.52-4.63-29.03-8.68-44.1-11.08m906 1190c-.65.1-.65.1-3.91.59-14.12 2.27-27.27 6.65-39.97 13.22-.73.38-1.47.76-2.22 1.15-11.63 6.27-21.31 14.89-30.52 24.23-.51.5-1.01 1.01-1.52 1.52-16.3 16.47-27.74 34.18-30.48 57.6-.13.96-.25 1.91-.37 2.9-1.39 11.23-2.15 22.45-2.58 33.75-.08 2.14-.17 4.29-.25 6.43-.12 3.09-.24 6.18-.37 9.27-.32 8.31-.66 16.62-1 24.93-.01.42-.01.42-.1 2.55-.62 14.95-1.32 29.91-2.09 44.86-1.42 27.73-2.76 55.46-4.08 83.2-.16 3.51-.33 7.03-.5 10.55-.27 5.62-.54 11.24-.8 16.86l-.3 6.23-.42 8.75c-.02.46-.02.46-.13 2.82-.23 5.01-.45 10.01-.64 15.02-.05 1.07-.09 2.14-.13 3.24-.08 2.03-.16 4.07-.23 6.1-.21 5.41-.59 10.76-1.17 16.14-.27 2.55-.39 5.1-.47 7.66l-.09 2.98c-.03 1.03-.06 2.07-.1 3.14-.33 9.89-.88 19.75-1.56 29.62-.8 11.72-1.35 23.42-1.66 35.16-.13 4.71-.26 9.37-.86 14.05-.71 5.77-.63 11.55-.6 17.36-.01 1.12-.01 2.25-.02 3.41 0 1.08.01 2.15.01 3.26v2.96c.13 2.49.13 2.49 1.13 5.49 8.45-.21 15.25-2.8 23-6 2.99-1.18 6-2.34 9-3.5 2.17-.85 4.35-1.69 6.52-2.55 1.76-.67 3.53-1.33 5.31-1.97 9.75-3.58 18.89-8.15 28.11-12.92.81-.42 1.62-.83 2.46-1.26 17.83-9.2 34.85-19.31 50.6-31.8 1.17-.92 2.34-1.83 3.51-2.75 2.42-1.89 4.83-3.79 7.24-5.69 2.62-2.07 5.28-4.1 7.94-6.12 4.39-3.4 8.43-7.16 12.51-10.92 2.59-2.33 5.25-4.49 7.99-6.64 5.04-4.08 9.65-8.5 14.25-13.07.68-.68 1.37-1.35 2.08-2.05 3.67-3.7 6.65-7.35 9.48-11.76q1.785-1.905 3.69-3.69c4.88-4.75 9.07-9.99 13.31-15.31.69-.85 1.39-1.7 2.1-2.57 4.58-5.64 8.79-11.45 12.9-17.43.34-.49.34-.49 2.09-2.96 11.01-15.67 20.29-31.93 28.91-49.04l1.15-2.24c6.46-12.61 11.05-25.88 15.64-39.26 1.13-3.26 2.27-6.51 3.41-9.76 17.07-49.02 24.28-108.94 5.8-158.74-.34-.95-.68-1.9-1.02-2.87-6.77-18.97-14.3-38-27.98-53.13-.62-.72-1.23-1.45-1.87-2.19-21.45-25.05-49.39-37.32-81.87-40.64-12.83-.99-25.58-.22-38.26 1.83m-640 57c-2.74 3.25-4.07 6.46-5.49 10.46-.22.63-.45 1.25-.68 1.9-.72 2-1.43 4.01-2.14 6.02-.93 2.61-1.86 5.22-2.8 7.83-.12.33-.12.33-.71 1.97-1.62 4.44-3.42 8.77-5.32 13.11-2.55 5.83-4.51 11.65-6.24 17.77-2.15 7.34-4.49 14.51-7.31 21.63-3.4 8.63-6.36 17.37-9.24 26.18-4.38 13.39-8.99 26.66-14.01 39.82-.13.35-.13.35-.81 2.16-6.37 16.83-12.54 27.1-29.25 35.15-23.89 10.59-49.25 18.52-74.05 26.66-6.97 2.29-13.86 4.61-20.64 7.43-2.53 1-5.09 1.83-7.69 2.66-7.16 2.35-14.1 5.2-21.08 8.02-6.92 2.8-13.88 5.49-20.85 8.17-4.69 1.82-9.24 3.7-13.69 6.06 6.04 6.67 15.96 9.23 24.25 12 2.04.7 4.09 1.39 6.13 2.09.49.16.49.16 2.95 1 3.3 1.12 6.58 2.29 9.86 3.47 3.69 1.33 7.38 2.64 11.08 3.91 8.66 2.99 17.26 6.09 25.8 9.39 11.83 4.55 23.71 8.85 35.74 12.83.7.23 1.39.46 2.11.7 6.97 2.3 13.95 4.57 20.94 6.8 32.65 10.47 32.65 10.47 38.6 20.19 7.14 14.45 12.25 29.54 17.28 44.83 5.91 17.92 12.19 35.71 18.46 53.51.7 2 1.41 4.01 2.11 6.01 8.3 23.63 17.28 47.06 26.69 70.27 2.76-2.38 3.79-4.57 4.98-7.99.36-1 .71-2.01 1.08-3.04.37-1.09.74-2.17 1.13-3.28.8-2.28 1.6-4.57 2.41-6.85l1.22-3.48c1.72-4.91 3.51-9.79 5.3-14.67 2.48-6.78 4.89-13.56 7.26-20.38 2.6-7.51 5.34-14.98 8.12-22.43 4.13-11.07 8.12-22.18 12.08-33.3 2.8-7.87 5.61-15.72 8.42-23.58.12-.34.12-.34.75-2.08 12.97-36.25 12.97-36.25 28.5-43.8.69-.34 1.39-.68 2.1-1.03 11.88-5.71 24.26-10.02 36.77-14.11 8.58-2.83 17.08-5.89 25.57-8.98.72-.26 1.44-.52 2.18-.79 8.7-3.18 17.38-6.42 25.99-9.83 6.28-2.48 12.63-4.69 19.01-6.89 6.77-2.34 13.45-4.88 20.13-7.49 1.29-.48 2.58-.96 3.88-1.44 4.59-1.71 9.13-3.56 13.67-5.4 3.78-1.53 7.57-2.91 11.45-4.16l-2-4c-.87-.28-1.75-.55-2.65-.84-9.49-3.07-18.67-6.66-27.89-10.46-15.87-6.52-31.88-12.42-48.15-17.89-.49-.16-.49-.16-2.99-1-4.9-1.65-9.8-3.29-14.7-4.93-74.45-24.9-74.45-24.9-82.79-41.17-3.35-7.35-6.16-14.84-8.83-22.46-.44-1.24-.88-2.48-1.33-3.76-2.55-7.23-5.07-14.47-7.45-21.77-1.06-3.24-2.14-6.47-3.22-9.71-2.44-7.28-4.84-14.57-7.18-21.89-.54-1.68-1.09-3.36-1.63-5.04-.81-2.54-1.63-5.08-2.44-7.62-3.14-9.86-6.5-19.57-10.33-29.18-2.81-7.12-4.87-14.36-6.83-21.75-4.7-16.96-4.7-16.96-11.59-21.53"/><path d="m1282.125 105.375 2.65.06c25.5.66 25.5.66 31.23 2.56 1.58.18 3.17.32 4.76.43.94.08 1.89.15 2.86.22 1.01.08 2.02.15 3.06.23 9.63.78 18.85 2.15 28.32 4.12 2.35.42 4.7.84 7.06 1.26 48.23 8.95 94.28 23.55 139.18 43.24.72.32 1.43.63 2.16.95 14.97 6.56 29.5 13.85 43.91 21.55 1.07.57 2.15 1.13 3.26 1.72 6.37 3.4 12.22 7.14 18 11.48 2.98 2.22 6.03 4.2 9.17 6.18 1.2.76 2.39 1.52 3.58 2.28.3.19.3.19 1.82 1.16 10.33 6.61 20.25 13.56 29.86 21.18l2.6 2.06c22.47 17.81 45.15 37 63.66 59 2.3 2.58 4.77 4.97 7.24 7.38 3.94 3.88 7.46 7.89 10.76 12.33 1.91 2.47 3.98 4.71 6.11 6.99 3.75 4.11 6.94 8.4 10.05 13.02 2.98 4.42 6.15 8.67 9.39 12.91 5.88 7.76 11.3 15.77 16.62 23.92 1.63 2.49 3.26 4.97 4.89 7.45 13.27 20.22 25.34 41.04 36.06 62.73 1.61 3.21 1.61 3.21 2.62 4.21.68.06 1.37.12 2.07.17 3.1.26 6.2.51 9.3.77 1.08.09 2.16.18 3.27.27 1.03.08 2.07.17 3.13.26.95.08 1.9.16 2.89.24 2.34.29 2.34.29 4.34 1.29 2.26.25 4.54.48 6.81.69 9.49 1.07 18.41 3.65 27.51 6.49 2.56.79 5.13 1.54 7.7 2.28 40.46 12.13 77.3 38.08 102.98 71.54.62.78 1.25 1.56 1.9 2.36 21.61 27.83 31.9 61.77 39.1 95.64.19.91.39 1.81.59 2.75 6.15 28.97 2.38 57.87-4.16 86.33-.64 2.83-1.22 5.67-1.8 8.51-5.74 27.55-5.74 27.55-14.63 37.41-6.65.24-12.28-.45-18.69-2.18-.97-.26-1.93-.52-2.92-.78-14.78-4.08-29.23-9.31-43.69-14.39-3.68-1.29-7.38-2.56-11.07-3.82-17.65-6.02-34.76-12.89-51.63-20.83l-2.36-1.09c-22.5-10.51-43.77-23.62-61.64-40.91-.94-.88-1.87-1.76-2.83-2.67-11.73-11.31-13.91-22.57-15.91-38.3-1.38-10.49-3.49-20.8-5.67-31.15-.53-2.55-1.03-5.1-1.52-7.66-6.89-35.23-18.4-70.08-32.07-103.22-.76-1.87-1.52-3.75-2.28-5.63-7.56-18.48-17.49-35.6-27.86-52.62-1.84-3.04-3.65-6.09-5.42-9.17-8.63-15.06-18.68-28.98-29.44-42.58-.49-.61-.97-1.22-1.46-1.85-8.32-10.57-17.16-20.51-26.54-30.15-.81-.82-1.61-1.65-2.44-2.5-17.51-17.9-17.51-17.9-26-24.5-2.51-1.95-4.92-3.99-7.33-6.06-5.51-4.73-11.12-9.21-16.97-13.51-2.39-1.76-4.73-3.57-7.06-5.42-15.51-12.24-32.25-22.13-49.61-31.51-3.47-1.87-6.9-3.81-10.3-5.8-6.92-4.03-13.97-7.47-21.29-10.7-1.18-.53-2.36-1.06-3.57-1.6-58.65-26.35-121.08-40.71-185.07-45.16-2.36-.24-2.36-.24-5.13-.74-3.17-.49-6.13-.62-9.33-.62-1.18-.01-2.36-.01-3.58-.01h-16.08q-5.295.015-10.59 0h-13.98c-.59 0-.59 0-3.58.01h-3.14c-3.06.13-5.94.58-8.95 1.12q-3.495.3-6.99.51c-17.2 1.17-34.14 3.05-51.14 5.93-.86.15-1.73.29-2.62.44-15.72 2.66-31.43 5.54-46.57 10.62-2.12.7-4.25 1.4-6.38 2.1-1.15.38-2.3.76-3.48 1.16-4.29 1.41-8.6 2.76-12.91 4.12-15.93 5.03-31.61 10.12-46.79 17.16-2.04.93-4.09 1.8-6.16 2.65-10.83 4.49-20.98 10.08-31.2 15.78-2.64 1.47-5.29 2.9-7.95 4.33-16.68 8.99-32.54 18.99-47.81 30.2-.94.68-1.88 1.36-2.85 2.05-6.04 4.34-11.96 8.83-17.83 13.39-2.19 1.7-4.4 3.38-6.62 5.04-7.05 5.3-13.61 10.92-20.03 16.97q-1.83 1.695-3.69 3.33c-7.65 6.75-14.83 13.92-22.03 21.14l-6.45 6.45-4.17 4.17c-.32.32-.32.32-1.92 1.91-5.7 5.73-11.08 11.73-16.04 18.12-2.87 3.63-5.84 7.12-8.91 10.57-7.21 8.14-13.63 16.69-19.87 25.59-1.58 2.25-3.17 4.5-4.76 6.74-2.96 4.17-5.9 8.35-8.83 12.53-.42.59-.83 1.18-1.25 1.78-12.1 17.21-22.75 34.86-32 53.75-1.76 3.57-3.62 6.99-5.75 10.35-4.49 7.3-7.68 15.25-11 23.12-.21.5-.21.5-1.28 3.01-10.15 24.16-19.4 48.54-25.72 73.99-.28 1.11-.56 2.21-.85 3.35-3.52 13.96-6.67 27.91-9.24 42.08-1.4 7.45-3.26 14.67-5.35 21.95-2.94 10.42-4.92 20.86-6.59 31.54-2.52 15.98-5.54 31.85-8.64 47.73l-1.17 6.03c-1.24 6.36-2.48 12.72-3.74 19.08-.94 4.75-1.86 9.51-2.77 14.28-.42 2.2-.85 4.41-1.28 6.61-.18.97-.36 1.95-.55 2.95-1.18 6.07-2.84 11.79-4.91 17.61-1.59 4.86-2.39 9.83-3.23 14.86l-.61 3.52c-1.32 7.75-2.58 15.51-3.84 23.27-.16.95-.31 1.89-.47 2.86-.76 4.7-1.52 9.4-2.27 14.1-1.42 8.92-2.99 17.78-4.81 26.63-1.18 6.13-2.03 12.31-2.87 18.49l-.54 3.84c-.43 3.08-.85 6.15-1.27 9.22-9.11-.44-17.44-3.42-26-6.31-.8-.26-1.59-.53-2.41-.8-20.01-6.72-38.84-15.43-56.59-26.89-.5-.3-.5-.3-3.01-1.87-12.58-8.05-24.13-17.91-34.99-28.13-.73-.65-1.45-1.31-2.19-1.98-34.1-32.28-53.16-83.18-60.42-128.6-.34-2.07-.71-4.13-1.08-6.18-4.55-27.65-.88-57.43 6.69-84.24.11-.42.11-.42.71-2.59 9.06-32.61 23.85-62.94 46.29-88.41.76-.87 1.52-1.75 2.31-2.65 8.11-9.17 16.6-17.73 26.19-25.35 2.11-1.69 4.12-3.43 6.12-5.24 2.35-2.03 4.71-3.59 7.44-5.06 3.33-1.82 6.63-3.65 9.92-5.53 17.94-10.1 35.83-17.27 55.72-22.51 1.74-.5 3.45-1.06 5.16-1.65 5.79-1.85 11.83-2.61 17.82-3.57.35-.05.35-.05 2.09-.34 11.06-1.78 22.01-2.94 33.23-3.1 3.32-3.84 5.62-7.88 7.81-12.43l2.1-4.29c.34-.71.69-1.43 1.05-2.17q1.455-2.97 2.97-5.91c.3-.61.61-1.21.93-1.83l2.49-4.89c1.29-2.71 2.41-5.39 3.5-8.18 2.26-5.72 4.94-11.18 7.71-16.67.52-1.04 1.05-2.09 1.59-3.16 7.68-15.15 15.79-29.83 25.19-43.97 1.91-2.89 3.79-5.79 5.67-8.7 11.3-17.48 23.14-34.41 35.99-50.8.65-.84 1.3-1.69 1.97-2.56 5.12-6.56 10.7-12.62 16.39-18.68 1.65-1.77 3.29-3.54 4.92-5.32 6.4-6.94 12.93-13.75 19.59-20.44.69-.69 1.38-1.38 2.09-2.1 3.96-3.94 8.01-7.7 12.27-11.33 1.72-1.53 3.31-3.13 4.89-4.81 3.86-3.95 8.2-7.21 12.56-10.58 3.46-2.67 6.75-5.42 9.94-8.42 7.17-6.61 15.18-12.23 23.02-18.01 2.23-1.66 4.45-3.33 6.67-5.01 2.78-2.09 5.6-4.03 8.56-5.86 5.07-3.17 10.04-6.48 15-9.81 10.13-6.79 20.4-13.25 31.13-19.07 1.48-.8 2.95-1.62 4.43-2.43.76-.42 1.51-.84 2.29-1.26 1.48-.85 2.93-1.72 4.36-2.64 8.79-5.6 18.38-9.52 27.92-13.67.54-.23.54-.23 3.31-1.44 15.08-6.59 30.17-13.05 45.69-18.56.3-.1.3-.1 1.84-.65 32.07-11.38 64.51-19.72 97.99-25.77 2.69-.49 5.37-.99 8.06-1.5 7.94-1.49 15.91-2.64 23.92-3.7.93-.12 1.86-.25 2.82-.37 13.82-1.77 27.57-2.33 41.49-2.63.5-.01.5-.01 3.02-.07 15-.32 29.98-.31 44.98.07"/><path d="M1639 170c4.53.48 8.59 1.15 12.97 2.44 4.03 1.11 8.13 1.89 12.22 2.75 10.13 2.16 20.16 4.6 30.2 7.16 6.73 1.7 13.47 3.31 20.25 4.82 14.14 3.15 28 7.06 41.87 11.2 3.81 1.14 7.63 2.24 11.45 3.31 25.04 7 49.55 15.89 73.98 24.76.66.24 1.32.48 2 .72 12.3 4.47 24.5 9.12 36.38 14.62 4.91 2.23 9.89 4.27 14.87 6.34 11.64 4.9 23.14 10.06 34.59 15.39 2.9 1.34 5.8 2.67 8.7 4 2.52 1.15 5.04 2.3 7.55 3.46 1.79.82 3.57 1.63 5.36 2.44 5.86 2.7 11.42 5.59 16.91 8.99 5.1 3.02 10.44 5.64 15.73 8.32 10.74 5.45 21.33 11.02 31.63 17.27 2.83 1.7 5.67 3.29 8.59 4.82 8.25 4.44 16.12 9.56 24.06 14.52 4.09 2.54 8.2 5.04 12.31 7.55 20.11 12.25 39.88 25.25 58.83 39.24 3.1 2.28 6.23 4.52 9.36 6.76.59.42 1.18.84 1.79 1.27 2.98 2.13 5.96 4.25 8.95 6.36 11.46 8.11 22.52 16.68 33.45 25.49 1.67 1.33 3.33 2.67 5 4 2.51 2.01 5.03 4.02 7.54 6.04 3.87 3.11 7.76 6.19 11.71 9.21 9.2 7.14 17.89 14.89 26.42 22.81 4.08 3.77 8.34 7.27 12.67 10.75 3.56 2.93 6.97 6.02 10.37 9.12 2.5 2.26 5.04 4.44 7.62 6.59 4.01 3.56 7.69 7.51 11.47 11.32 1.84 1.84 3.68 3.69 5.51 5.54.91.92 1.83 1.84 2.77 2.78 4.58 4.6 9.21 9.06 14.14 13.28 2.73 2.39 5.29 4.92 7.84 7.5.48.47.96.94 1.45 1.43 2.7 2.71 5.25 5.49 7.74 8.38 4.33 5 9.04 9.61 13.75 14.25 5.36 5.28 10.63 10.54 15.49 16.28 1.55 1.77 3.19 3.4 4.89 5.03 3.66 3.61 6.82 7.55 10.05 11.54 2.89 3.57 5.88 7.05 8.88 10.53.28.31.28.31 1.66 1.91 2.76 3.18 5.57 6.31 8.46 9.38.27.29.27.29 1.66 1.77 1.03 1.09 2.08 2.18 3.13 3.26 2.77 2.92 4.57 5.44 5.78 9.3h2c.34.45.68.89 1.03 1.35 3.99 5.22 7.98 10.44 11.97 15.65.47.61.94 1.22 1.42 1.86 4.67 6.1 9.38 12.17 14.14 18.2 6.73 8.54 13.27 17.2 19.45 26.14 1.99 2.81 4.06 5.55 6.14 8.28 5.29 6.95 10.28 14.02 15.07 21.32 3.47 5.28 7.06 10.47 10.71 15.64 6.76 9.59 13.08 19.29 19.02 29.41 3.38 5.75 6.93 11.38 10.49 17.03 6.46 10.29 12.73 20.68 18.85 31.19 1.2 2.05 2.4 4.11 3.6 6.16 1.98 3.38 3.95 6.76 5.92 10.15.3.51.3.51 1.81 3.09 3.99 6.89 7.62 13.9 11.15 21.03 2.5 5.07 5.08 10.1 7.66 15.13.47.94.95 1.87 1.44 2.83 1.97 3.85 3.94 7.69 5.91 11.53 5.42 10.58 10.83 21.17 16.17 31.79.44.87.88 1.74 1.33 2.64 3.82 7.63 7.23 15.41 10.49 23.28 1.86 4.43 3.77 8.83 5.7 13.22 16.79 38.2 31.46 77.06 44.44 116.71 1.55 4.76 3.14 9.5 4.74 14.24 11.95 35.31 23.34 71.43 30.82 108 .53 2.13.53 2.13 1.5 5.02 1.78 5.35 2.94 10.86 4.22 16.36.15.65.3 1.31.46 1.98 6.73 29.07 12.33 58.36 17.35 87.77.13.79.27 1.58.41 2.39 4.25 25.02 7.54 50.1 10.34 75.32.23 2.11.47 4.21.71 6.31 8.81 78.01 10.51 157.62 5.54 235.98-.05.84-.11 1.68-.16 2.55-1.59 24.78-3.94 49.49-6.6 74.18-.15 1.46-.31 2.92-.46 4.38-2.04 19.14-4.81 38.13-7.78 57.14-.17 1.08-.34 2.15-.51 3.26a1086 1086 0 0 1-7.08 40.38c-.67 3.44-1.27 6.89-1.88 10.35-2.07 11.81-4.57 23.52-7.12 35.24-1.28 5.88-2.53 11.78-3.77 17.67a11448 11448 0 0 1-8.18 38.37c-1.08 5-2.17 9.99-3.27 14.98-.26 1.17-.51 2.34-.77 3.55-1.65 7.36-3.81 14.37-6.34 21.46-1.08 3.51-1.66 6.85-2.08 10.49l-2 1-.06-2.08c-.5-16.69-1.28-33.3-2.94-49.92-.11-1.14-.22-2.29-.34-3.46-3.75-36.86-12.03-74.43-26.66-108.54-.59-1.44-1.18-2.88-1.76-4.32-.64-1.56-1.28-3.12-1.93-4.68l-.98-2.38a186 186 0 0 0-6.29-13.42c-5.81-11.28-9.8-19.33-8.04-32.2.15-1.55.29-3.1.42-4.64.64-7.07 1.53-14.08 2.56-21.1 1.01-6.95 1.74-13.9 2.4-20.88.76-8.04 1.55-16.05 2.6-24.05 6.03-46.71 6.3-93.99 6.27-141.02v-2.99c0-5.71-.01-11.41-.04-17.12 0-1.75-.01-3.5-.01-5.25-.01-2.41-.02-4.81-.04-7.22v-2.12c-.04-3.98-.46-7.7-1.16-11.61-.11-1.59-.18-3.19-.22-4.78-.02-.91-.05-1.82-.07-2.75-.02-.98-.05-1.96-.07-2.96l-.18-6.44c-.04-1.13-.07-2.27-.1-3.43-.74-24.36-2.68-48.4-5.46-72.61-.89-7.75-1.59-15.51-2.23-23.28-3.73-44.42-12.7-88.09-21.36-131.75l-.67-3.41c-4.03-20.37-8.59-40.62-14.08-60.65-.29-1.07-.58-2.15-.88-3.25-11.74-42.89-25.29-85.34-41.68-126.69l-1.62-4.11c-7.54-19.07-15.22-38.07-23.38-56.89-.39-.9-.78-1.8-1.18-2.73-4.28-9.86-8.87-19.45-13.94-28.91-3.34-6.25-6.46-12.59-9.5-18.98-.47-.98-.94-1.96-1.41-2.96-2.05-4.32-4.08-8.64-6.06-12.99-3.75-8.22-7.88-16.05-12.48-23.83-4.5-7.63-8.7-15.41-12.84-23.24-2.77-5.19-5.7-10.12-9.02-14.97-3.19-4.85-5.96-9.96-8.82-15.01-5.1-8.94-10.37-17.66-16.21-26.13-3.12-4.56-6.16-9.17-9.22-13.77-1.19-1.79-2.38-3.57-3.57-5.36-3.39-5.07-6.77-10.14-10.12-15.23-12.02-18.21-25.05-35.66-38.33-52.96-3.14-4.1-6.27-8.21-9.37-12.34-6.68-8.85-13.31-17.52-20.93-25.59a667 667 0 0 1-3.5-4c-2.61-3-5.26-5.94-7.94-8.88-4.87-5.4-9.41-11.04-13.85-16.8-7.57-9.8-15.78-18.66-24.64-27.32-4.33-4.22-8.49-8.5-12.43-13.09-7.29-8.5-14.81-16.5-23.65-23.4-3.96-3.32-7.59-6.92-11.24-10.57l-2.01-2.01c-3.87-3.91-7.57-7.94-11.16-12.12-5.04-5.77-10.66-10.62-16.61-15.42-9.46-7.63-18.76-15.45-27.65-23.75-5.91-5.5-11.92-10.7-18.32-15.64-1.35-1.06-2.71-2.12-4.06-3.18-9.24-7.23-18.56-14.34-27.96-21.34-2.02-1.51-4.03-3.03-6.04-4.54-8.55-6.45-17.19-12.76-25.94-18.94-.82-.59-1.65-1.18-2.5-1.79-5.85-4.16-11.86-8.06-17.9-11.94-4.85-3.13-9.68-6.3-14.48-9.52-23.58-15.79-48.33-29.79-73.31-43.23-2.89-1.57-5.78-3.15-8.66-4.74-26.8-14.72-54.5-27.78-82.3-40.48-2.44-1.11-4.88-2.24-7.31-3.38-23.69-10.96-48.42-19.85-73.25-27.84-6.88-2.22-13.71-4.51-20.46-7.11-1.17-.45-2.34-.9-3.55-1.36-5.14-2.52-9.07-5.88-12.34-10.61-2.4-3.33-4.99-6.13-7.94-9-3.84-4.2-7.45-8.56-11-13-9.44-11.56-20.04-22.12-30.56-32.69-.42-.42-.42-.42-2.56-2.57-4.15-4.13-8.3-8.1-12.88-11.74v-2l-3-1c-.49-.68-.99-1.36-1.5-2.06-9.52-11.19-22.83-20.46-34.75-28.95-5.35-3.87-10.54-7.95-15.75-11.99zM388 628l3 1c.15.56.3 1.11.46 1.69 9.83 36.34 9.83 36.34 15.54 53.92 2.64 8.19 4.33 15.63 4.62 24.27.04.93.07 1.87.11 2.84l.18 6.07c.06 2.2.14 4.39.23 6.59.13 3.44.22 6.87.3 10.31.02.53.02.53.14 3.21.15 11.15-5.31 18.53-11.62 27.27-2.33 3.36-4.45 6.84-6.58 10.33-3.71 6.03-7.69 11.8-11.88 17.5-5.49 7.48-10.5 15.15-15.32 23.08-1.15 1.86-2.31 3.71-3.49 5.56-5.91 9.27-11.41 18.75-16.87 28.29-4.27 7.44-8.65 14.81-13.13 22.13-.59.96-1.17 1.92-1.77 2.9-4.25 6.96-4.25 6.96-6.26 10.22-7.5 12.26-14.05 25.02-20.59 37.81-2.45 4.8-4.91 9.59-7.39 14.37-3.92 7.59-7.83 15.18-11.73 22.78-.89 1.75-1.79 3.5-2.69 5.25-7.15 13.96-13.71 28.11-19.92 42.52-1.3 2.99-2.62 5.98-3.95 8.96-5.54 12.45-10.89 24.98-16.14 37.57-.31.74-.62 1.48-.94 2.25-6.39 15.3-12.54 30.67-17.87 46.37-.71 2.08-1.42 4.15-2.13 6.23-.37 1.06-.73 2.13-1.11 3.23-1.35 3.91-2.73 7.8-4.11 11.7-3.08 8.71-6.05 17.45-8.97 26.22-.25.77-.51 1.55-.78 2.35-7.13 21.45-13.7 42.98-19.45 64.84-.9 3.41-1.82 6.82-2.75 10.23-11.12 40.94-21 82.19-28.1 124.02-.76 4.49-1.54 8.97-2.35 13.44-5.13 28.7-8.88 57.59-12.02 86.57-.36 3.37-.74 6.74-1.17 10.1-1.79 14.39-2.41 28.85-3.06 43.32-.07 1.41-.13 2.82-.2 4.24-2.15 47.4-3.3 95.03-1.24 142.45l.09 2.16c.86 19.92 2.38 39.78 3.91 59.65.04.55.04.55.25 3.34 1.61 20.97 1.61 20.97 3.22 31.38.65 4.25 1.18 8.51 1.71 12.77l.63 4.96c.31 2.52.63 5.04.94 7.56 1.69 13.71 3.69 27.31 6.69 40.8 1.3 5.92 2.36 11.85 3.37 17.82 3.82 22.17 8.14 44.04 13.73 65.84 2.54 9.94 4.9 19.9 7.14 29.9 2.77 12.35 5.67 24.61 9.37 36.72.73 2.37 1.44 4.73 2.15 7.1 5.27 17.62 10.67 35.15 16.89 52.45 1.23 3.45 2.44 6.92 3.65 10.38.87 2.49 1.74 4.99 2.62 7.48 1.04 2.99 2.09 5.98 3.13 8.98 9.99 28.69 22.13 56.26 34.82 83.84 1.8 3.93 3.59 7.86 5.38 11.79 6.98 15.38 14.47 30.5 22.19 45.52.36.71.73 1.43 1.1 2.17 3.75 7.3 7.51 14.52 12.02 21.39 2.73 4.23 5.3 8.5 7.69 12.93 12.24 22.54 24.93 45.05 39.92 65.89 3.54 4.92 6.88 9.95 10.14 15.06 4.2 6.55 8.59 12.88 13.25 19.12 1.12 1.53 2.24 3.05 3.36 4.58 1.23 1.68 2.47 3.36 3.7 5.04.58.79 1.16 1.58 1.75 2.39 3.44 4.68 6.96 9.28 10.53 13.85 2.45 3.16 4.81 6.4 7.16 9.64 4.07 5.58 8.2 11.09 12.5 16.5.62.79 1.25 1.57 1.89 2.38 2.03 2.55 4.07 5.08 6.11 7.62.7.88 1.4 1.75 2.12 2.66 4.43 5.5 9.05 10.75 13.85 15.92 3.61 3.9 6.94 7.97 10.23 12.14 4.94 6.24 10.38 12.02 15.8 17.84.29.32.29.32 1.76 1.9 3.51 3.75 7.1 7.41 10.78 11 1.87 1.97 3.12 4.19 4.46 6.54l3 2v2c.54.2 1.09.41 1.64.62 3.29 1.92 5.54 4.63 8.05 7.44 6.98 7.65 14.24 14.99 21.56 22.32l1.71 1.71c1.62 1.63 3.24 3.25 4.87 4.87.49.5.98.99 1.49 1.5 3.45 3.42 3.45 3.42 5.68 4.54v2c.27.12.27.12 1.66.7 3 1.67 5.21 3.77 7.72 6.11.25.24.25.24 1.56 1.45 1.69 1.58 3.37 3.16 5.06 4.74 19.04 17.77 19.04 17.77 26.38 23.38 3.37 2.58 6.54 5.31 9.68 8.18 3.49 3.18 7.02 6.09 10.83 8.86 2.5 1.87 4.89 3.84 7.3 5.83 4.47 3.68 9.02 7.24 13.63 10.74 3.71 2.84 7.33 5.76 10.93 8.74 7.53 6.21 15.28 11.97 23.31 17.52 3.4 2.35 6.71 4.81 10.01 7.3 2.9 2.18 5.85 4.29 8.81 6.39.3.21.3.21 1.84 1.31l3.64 2.59c1.38.97 2.76 1.96 4.13 2.94a619 619 0 0 0 37.38 24.49c4.39 2.66 8.7 5.39 12.94 8.28 7.73 5.13 15.75 9.83 23.78 14.48 2.6 1.5 5.2 3.02 7.79 4.54 9.06 5.3 18.18 10.41 27.5 15.26 3.16 1.65 6.29 3.35 9.42 5.06 5.6 3.06 11.23 6.04 16.89 8.99.91.47 1.82.95 2.77 1.44 13.4 7 26.96 13.66 40.64 20.11 2.27 1.07 4.54 2.14 6.8 3.21 14.81 7 29.75 13.65 44.85 19.98 2.26.96 4.52 1.91 6.77 2.86 1.05.44 2.1.88 3.18 1.33 2.2.94 4.4 1.88 6.59 2.84 12.57 5.51 25.41 10.38 38.21 15.35.81.32 1.62.63 2.45.95 9.46 3.68 19.04 6.91 28.68 10.08 5.91 1.95 11.75 3.99 17.56 6.22 5.48 2.1 10.99 3.97 16.62 5.64 4.14 1.24 8.25 2.55 12.37 3.86 10.02 3.17 20.07 6.23 30.13 9.25l2.64.79c10.75 3.23 21.5 6.38 32.35 9.26 5.81 1.55 11.57 3.25 17.32 5.01 15.1 4.59 30.36 8.16 45.84 11.24 4.82.97 9.37 2.12 14.04 3.7 2.65.52 5.28 1 7.94 1.44 1.51.25 3.01.51 4.52.77.76.13 1.51.26 2.29.39 7.03 1.24 14.05 2.58 20.96 4.35 20.09 5.08 40.84 7.86 61.29 11.05 2.39.38 4.79.76 7.18 1.13 10.4 1.63 20.79 3.21 31.26 4.38 2.82.39 5.53.89 8.31 1.48 5.39 1.11 10.77 1.63 16.25 2.07 1.85.16 3.71.31 5.56.48.81.06 1.61.13 2.44.19 2 .27 2 .27 4 1.27 2.58.28 5.15.52 7.75.72.76.06 1.53.12 2.32.19 2.46.2 4.91.4 7.37.59l9.68.78c.37.03.37.03 2.26.17 3.05.26 5.7.58 8.62 1.55 1.6.16 3.2.28 4.81.37.97.06 1.95.12 2.95.18 1.05.05 2.1.11 3.18.17s2.16.12 3.27.19c4.62.27 9.25.53 13.87.79 3.37.19 6.74.38 10.11.58.53.03.53.03 3.19.17.97.06 1.94.12 2.94.18.86.05 1.72.09 2.6.14 2.08.23 2.08.23 4.08 1.23 1.48.15 2.96.24 4.44.3l2.84.12 3.15.12c1.1.04 2.2.08 3.33.13 3.71.14 7.41.27 11.12.39 1.28.05 2.56.09 3.89.14 34.09 1.14 68.18 1.07 102.28.83 3.44-.03 6.88-.04 10.32-.06 28.15-.12 56.23-1.85 84.32-3.47.99-.06 1.98-.11 3-.17 5.74-.33 11.47-.67 17.21-1.01 1.77-.11 3.55-.22 5.33-.32 2.46-.14 4.91-.29 7.36-.44.73-.04 1.46-.09 2.2-.13 4.98-.32 4.98-.32 7.21-1.43 1.71-.07 3.42-.08 5.12-.06.92.01 1.83.02 2.76.02 2.12.04 2.12.04 4.12 2.04-6.32 1.65-12.52 3.11-19 4l-3.06.94c-4.67 1.42-9.51 1.89-14.34 2.5-3.26.51-6.35 1.23-9.54 2.06-4.19 1.02-8.45 1.65-12.7 2.36-4.16.7-8.21 1.58-12.28 2.63-3.88.95-7.79 1.7-11.7 2.45-.91.17-1.81.34-2.74.52-8.55 1.59-17.14 2.77-25.77 3.89-3.64.47-7.25 1.04-10.87 1.71-9.24 1.63-18.66 2.16-28 2.94l-1 1-40 3-1 1c-1.08.06-2.16.11-3.27.17-4 .2-8 .42-12 .63l-5.2.27-7.46.39-2.35.12c-5.49.31-5.49.31-7.72 1.42-1.59.15-3.18.25-4.78.31-.99.04-1.98.08-3 .13-1.08.04-2.16.07-3.27.11-1.12.05-2.24.09-3.39.13-11.94.42-23.87.47-35.82.45-2.33 0-4.66 0-6.99.01-4.84 0-9.68 0-14.52-.01-6.13-.01-12.26 0-18.39 0q-7.2.015-14.4 0c-2.25 0-4.51 0-6.77.01-11.53.01-23.03-.11-34.54-.59-.49-.02-.49-.02-2.96-.11-.9-.04-1.8-.09-2.72-.13-.4-.02-.4-.02-2.39-.11-2.06-.2-2.06-.2-5.06-1.2-2.47-.21-4.93-.37-7.41-.5l-2.18-.12c-2.3-.13-4.61-.26-6.91-.38-3.03-.16-6.06-.33-9.09-.5-.7-.04-1.4-.07-2.12-.11-2.98-.17-5.44-.44-8.29-1.39-2.21-.25-4.42-.46-6.63-.65-1.37-.12-2.73-.23-4.09-.35-.72-.06-1.43-.12-2.17-.18-23.1-1.98-45.87-4.84-68.73-8.7-.99-.16-1.97-.32-2.99-.49-11.58-1.95-23.08-4.14-34.55-6.69-7.25-1.61-14.52-3.11-21.81-4.55-27.91-5.56-55.38-11.61-82.74-19.46-3.64-1.03-7.3-2-10.96-2.96-10.05-2.64-19.88-5.74-29.72-9.08-13.39-4.54-26.88-8.77-40.37-13.02-8.81-2.78-17.6-5.58-26.24-8.87-1.35-.5-2.7-1-4.05-1.49-14.25-5.33-28.31-11.05-42.31-17-5.98-2.54-11.97-5.07-17.98-7.55-33.03-13.66-65.73-28.2-96.64-46.25-4.3-2.44-8.73-4.6-13.17-6.79-10.37-5.14-20.73-10.44-30.58-16.52-2.5-1.54-5.04-3-7.58-4.46-6.74-3.92-13.34-8.03-19.95-12.15-4.28-2.65-8.56-5.29-12.88-7.87-4.38-2.62-8.7-5.33-12.98-8.11-.73-.47-1.46-.94-2.2-1.42-5.59-3.64-11.1-7.39-16.58-11.19-5.09-3.53-10.24-6.97-15.41-10.39-5.67-3.76-11.26-7.58-16.74-11.63-3.1-2.29-6.23-4.55-9.36-6.81-3.12-2.24-6.23-4.49-9.34-6.74l-4.35-3.15c-7.16-5.17-14.16-10.44-20.96-16.1-3.57-2.89-7.25-5.64-10.94-8.38a388 388 0 0 1-16.62-13.05c-2.09-1.71-4.21-3.35-6.38-4.95-8.51-6.32-16.44-13.23-24.21-20.43-4.67-4.3-9.47-8.44-14.29-12.57-1.17-1-2.33-2-3.5-3-.28-.24-.28-.24-1.69-1.44-10.09-8.7-19.74-17.91-29.11-27.39-3.89-3.84-8.04-7.36-12.23-10.87-3.2-2.73-6.18-5.44-8.87-8.68-5.51-6.38-11.61-12.2-17.6-18.12-13.88-13.73-13.88-13.73-19.02-19.77-2.52-2.94-5.2-5.73-7.86-8.54-4.78-5.11-9.26-10.34-13.64-15.8-2.29-2.76-4.75-5.25-7.32-7.74-3.07-3.05-5.84-6.36-8.66-9.65-.95-1.1-1.91-2.2-2.86-3.3-5.57-6.44-11.01-12.91-16.14-19.7-5.06-6.68-10.16-13.27-15.62-19.62-4.06-4.73-7.82-9.58-11.43-14.66-2.02-2.82-4.1-5.58-6.2-8.34-4.22-5.61-8.27-11.34-12.3-17.09-3.71-5.28-7.54-10.45-11.44-15.6-3.11-4.16-6.06-8.42-9.01-12.69-.66-.95-1.33-1.9-2.01-2.88-4.47-6.42-8.88-12.88-13.24-19.37l-1.5-2.22c-2.94-4.4-5.61-8.88-8.15-13.53-1.32-2.39-2.74-4.7-4.22-7a1873 1873 0 0 0-6.6-10.16c-8.74-13.41-8.74-13.41-12.08-19.67-1.44-2.61-3.04-5.09-4.64-7.61-9.72-15.69-17.96-32.33-26.44-48.72-2.61-5.02-5.31-9.96-8.18-14.84-19.54-33.75-34.84-72.02-48.92-108.37-.71-1.83-1.43-3.66-2.15-5.49-12.83-32.55-23.82-65.86-34.18-99.26-.27-.86-.53-1.71-.8-2.58-2.75-8.83-5.3-17.67-7.48-26.66-.99-4.08-2.12-8.07-3.39-12.07-2.45-7.8-4.43-15.7-6.4-23.63-.19-.79-.39-1.58-.59-2.39a993 993 0 0 1-8.43-36.96c-1.78-8.54-3.68-17.06-5.57-25.58-9.36-42.35-9.36-42.35-12.04-60.74-.52-3.54-1.14-7.01-1.96-10.5-.99-4.42-1.67-8.83-2.25-13.32-.1-.78-.21-1.56-.31-2.36-.33-2.47-.65-4.94-.97-7.4-.42-3.25-.85-6.5-1.28-9.74-.05-.39-.05-.39-.31-2.37-.59-4.38-1.25-8.74-2-13.09-.92-5.32-1.5-10.62-1.97-15.99-.16-1.72-.31-3.44-.48-5.16-.06-.74-.13-1.48-.19-2.24-.27-2.1-.27-2.1-.76-3.89-.75-3.26-.94-6.56-1.19-9.89-.06-.76-.12-1.52-.19-2.3l-.57-7.33c-.24-3.17-.49-6.33-.74-9.49-.07-.81-.13-1.63-.2-2.47-.42-5.38-.88-10.76-1.36-16.14-6.45-72.68-7.24-146.85-1.26-219.59.08-1.04.17-2.08.26-3.16.96-11.88 2-23.76 3.11-35.63.62-6.74 1.04-13.48 1.38-20.24C84 1366 84 1366 85 1364c.32-2.13.59-4.26.83-6.39.08-.66.16-1.31.23-1.98.17-1.41.33-2.82.5-4.23.43-3.75.88-7.51 1.33-11.26.04-.39.04-.39.27-2.32 1.05-8.67 2.26-17.31 3.48-25.96.78-5.59 1.55-11.19 2.16-16.8.68-6.01 1.47-11.95 2.54-17.9.06-.36.06-.36.39-2.21 1.52-8.46 3.15-16.9 4.83-25.33.17-.84.34-1.68.51-2.55 3.67-18.37 7.91-36.59 12.23-54.81 1.71-7.26 3.31-14.53 4.89-21.82 3.71-16.98 8.2-33.75 13.53-50.29.97-3.06 1.83-6.14 2.65-9.24 5.06-18.98 11.48-37.46 17.93-56.01 1.53-4.41 3.04-8.82 4.55-13.24 6.51-19.14 13.6-37.99 21.17-56.73 1.29-3.2 2.56-6.4 3.8-9.61 4.49-11.48 9.45-22.72 14.53-33.94 2.8-6.18 5.52-12.36 7.96-18.69 2.17-5.58 4.68-10.87 7.4-16.19 1.95-3.8 3.84-7.63 5.65-11.5 7.07-15.11 14.81-29.81 22.7-44.5 2.37-4.43 4.71-8.87 7.03-13.33 8.7-16.72 18.08-33.09 27.91-49.17.91-1.49 1.81-2.97 2.71-4.46 2.33-3.82 4.67-7.63 7.01-11.45l3.51-5.73c5.58-9.11 11.25-18.16 17.2-27.02 1.09-1.62 2.16-3.24 3.23-4.86 5.49-8.32 11.21-16.47 16.94-24.63 2.78-3.96 5.53-7.93 8.28-11.91 3.34-4.84 6.76-9.61 10.24-14.35 1.73-2.38 3.4-4.79 5.07-7.21 7.97-11.44 16.73-22.34 25.36-33.27 2.7-3.43 5.36-6.88 8.01-10.34 1.39-1.71 2.85-3.25 4.44-4.77m184.875-377.25c1.24.01 2.47.01 3.75.02 8.65.1 16.86.6 25.37 2.23.88.16 1.75.31 2.64.47 22.36 4.02 44.04 9.55 64.95 18.5 2.74 1.17 5.5 2.3 8.25 3.44 6.04 2.51 11.98 5.21 17.92 7.96 6.9 3.2 13.81 6.33 20.81 9.32 5.31 2.28 10.46 4.78 15.56 7.5.6.32 1.21.64 1.83.97 3.84 2.08 7.45 4.37 11.04 6.84 0 5 0 5-1.06 6.45-6.31 8.57-12.44 17.11-17.87 26.27-1.5 2.38-3.01 4.6-4.69 6.84-7.75 10.37-13.69 21.27-19.47 32.81-.32.63-.63 1.25-.95 1.89-.85 1.7-1.7 3.41-2.54 5.12-1.42 2.62-1.42 2.62-3.42 4.62-5.31-.45-8.71-2.52-12.93-5.56-26.81-18.44-66.98-36.82-100.31-31.3-16.26 3.72-28.98 10.9-38.32 24.92-6.24 10.39-10.65 20.86-14.12 32.44-.28.89-.55 1.79-.83 2.71-5.65 19.73-7.11 39.3-7.23 59.73l-.09 7.05c-.08 5.67-.13 11.34-.17 17.01-.79 1.28-1.58 2.56-2.38 3.84-.44.71-.88 1.42-1.34 2.15-4.01 6.31-8.95 11.79-14.28 17.01-23.46 23-40.23 55.62-52 86l-2.43 6.06c-.52 1.31-1.05 2.63-1.57 3.94h-3c-3.96-14.38-7.1-28.83-9.57-43.54-.45-2.59-.92-5.18-1.4-7.76-4.71-26.53-6.35-53.79-7.03-80.7-.02-1.12-.05-2.24-.08-3.39-.04-3.21.01-6.4.08-9.61l.06-2.53c1.08-46.22 9-89.88 26.94-132.47.37-.87.74-1.74 1.11-2.64 7.41-17.32 17.51-34 30.89-47.36l2.73-2.94c7-7.46 14.43-12.95 23.27-18.06.59-.35 1.17-.7 1.77-1.06 18.33-11.04 38.84-15.36 60.11-15.19M801 515c2.21 1.19 4.37 2.47 6.5 3.81.55.35.55.35 3.34 2.08 2.86 1.91 5.48 3.97 8.16 6.11.83.49 1.66.98 2.51 1.49 7.31 4.43 13.23 11.1 18.76 17.53 1.73 1.98 1.73 1.98 4.29 4.36 9.73 10.47 13.99 23.82 18.13 37.18.3.96.59 1.92.9 2.9 3.57 11.84 4.78 22.88 4.78 35.19 0 2.38.04 4.77.08 7.15.08 10.49-1.38 19.93-3.93 30.08-1.41 5.76-2.41 11.61-3.52 17.43l-.78 4.09c-.52 2.67-1.03 5.35-1.54 8.02q-.84 4.455-1.71 8.91c-2 10.38-3.92 20.77-5.83 31.16l-.9 4.9c-1.55 8.36-3.08 16.73-4.59 25.09-2.86 15.88-5.76 31.72-9.38 47.44a601 601 0 0 0-3.99 18.66c-7.69 38.9-7.69 38.9-17.28 54.42-.5.88-1 1.75-1.51 2.65-4.44 7.49-9.97 13.6-16 19.81-1.39 1.43-2.76 2.89-4.13 4.34-5.35 5.55-10.88 10.05-17.36 14.2-.71.49-1.42.98-2.15 1.48-20.45 13.38-44.8 18.61-68.85 17.52-2.12-7.46.66-15.97 2.41-23.38.71-3.16 1.33-6.34 1.95-9.52 1.48-7.5 3.23-14.92 5.02-22.35 4.27-17.99 7.6-36.09 10.44-54.35 2.06-13.22 4.6-26.18 7.72-39.19 1.42-5.96 2.66-11.95 3.84-17.96 1.43-7.34 2.91-14.66 4.46-21.97.17-.77.33-1.53.5-2.33l1.02-4.77c3.05-14.34 5.9-28.7 8.57-43.11 2.12-11.48 4.53-22.87 7.13-34.26 3.62-15.87 6.56-31.81 9.27-47.86 2.07-12.23 4.31-24.39 6.92-36.51.3-1.42.6-2.83.91-4.24.78-3.66 1.57-7.32 2.36-10.98l1.44-6.67 2.34-10.86c.3-1.35.59-2.71.88-4.07 1.36-6.28 2.75-12.56 4.34-18.78.21-.85.42-1.69.65-2.56.92-2.52 2.17-4.19 3.83-6.28 1.03-1.98 2.04-3.98 3-6 2.78-1.39 3.98-.77 7 0m527.625-264.812c.8.11 1.6.21 2.42.32 15.18 2.06 30.06 4.91 44.96 8.49 1.02.25 2.05.49 3.12.74 5.31 1.29 10.49 2.73 15.65 4.52 2.41.8 4.83 1.51 7.27 2.21.84.24 1.69.48 2.56.73 1.73.5 3.46.98 5.2 1.46 5.08 1.48 8.97 3.14 13.2 6.34 7.83 18.87 11.77 38.63 15.86 58.56.7 3.42 1.46 6.82 2.27 10.22 1.17 5.2 1.57 10.47 1.99 15.79.04.49.04.49.26 2.99 1.29 15.43 1.29 15.43-1.38 19.44-5.22-.22-9.91-.8-14.78-2.74-7.68-2.89-15.56-4.95-23.48-7.07-.8-.22-1.61-.43-2.44-.66-16.01-4.3-32.09-8.1-48.3-11.53-1.04-.22-2.08-.45-3.15-.68-17.29-3.72-34.74-6.06-52.27-8.35-.94-.12-1.88-.25-2.85-.38l-5.35-.69c-.4-.05-.4-.05-2.42-.31-.69-.09-1.39-.18-2.11-.27-1.85-.32-1.85-.32-4.85-1.32-2.56-.28-5.1-.51-7.67-.72-.74-.06-1.49-.12-2.25-.19-3.19-.27-6.38-.53-9.57-.79-2.33-.19-4.66-.38-6.99-.58-.72-.06-1.45-.11-2.19-.17-5.11-.43-5.11-.43-7.33-1.55-3.8-.5-7.62-.74-11.44-1.02-1.16-.09-2.32-.18-3.52-.27-12.69-.91-25.38-1.12-38.11-1.27-4.53-.06-9.06-.12-13.6-.19-.53-.01-.53-.01-3.24-.05-8.72-.15-17.4-.57-26.09-1.2.82-4.75 2.65-8.54 4.93-12.75.4-.74.8-1.48 1.21-2.25 3.24-5.98 6.64-11.85 10.12-17.69 2.45-4.1 4.82-8.24 7.13-12.43 8.59-15.57 18.57-30.75 30.61-43.88 2.54-.49 5.08-.96 7.62-1.43.69-.14 1.39-.27 2.1-.41 37.3-6.83 79.58-4.01 116.9 1.03M2452 2354c.33.16.33.16 2 1-8.97 14.19-8.97 14.19-13.48 20.02-1.85 2.41-3.62 4.88-5.4 7.36-3.24 4.48-6.64 8.8-10.13 13.1-2.04 2.58-3.96 5.22-5.87 7.9-3.7 5.15-7.71 10-11.81 14.84-1.88 2.26-3.65 4.53-5.37 6.9-2.23 3.04-4.64 5.8-7.19 8.57-3.38 3.69-6.45 7.49-9.44 11.5-5.42 7.23-11.6 13.68-17.82 20.23-2.29 2.43-4.47 4.95-6.65 7.49-3.09 3.51-6.29 6.93-9.49 10.35-2.41 2.58-4.74 5.19-6.97 7.92-1.99 2.36-3.9 4.3-6.26 6.26-5.01 4.3-9.82 8.59-13.6 14.04-4.03 5.43-8.83 10.13-13.62 14.88-1.57 1.56-3.13 3.14-4.69 4.71-5.65 5.65-11.43 10.86-17.68 15.84-3.83 3.16-7.27 6.65-10.72 10.21-4.5 4.63-9.07 9.07-13.96 13.29-2.48 2.14-4.88 4.36-7.29 6.59-3.95 3.61-8 6.93-12.26 10.16-3.65 2.92-7.03 6.12-10.46 9.29-3.68 3.31-7.5 6.42-11.35 9.53-2.07 1.68-4.1 3.39-6.11 5.14-11.41 9.88-11.41 9.88-14.38 9.88-1.12-7.62-1.12-7.62 0-11 .19-2.02.33-4.05.45-6.08.07-1.27.15-2.53.22-3.83.08-1.4.16-2.79.23-4.18.08-1.45.17-2.9.25-4.35.22-3.89.44-7.77.65-11.65.18-3.2.36-6.4.55-9.61.83-14.77 1.65-29.55 2.29-44.34.04-1.01.08-2.02.13-3.07.2-4.57.38-9.14.55-13.71.06-1.58.12-3.16.19-4.75l.06-2.1c.16-3.83.78-6.86 2.43-10.33.61-.21.61-.21 3.71-1.29 9.62-3.34 19.21-6.74 28.76-10.31 3.73-1.39 7.48-2.73 11.27-3.97 3.16-1.04 6.18-2.19 9.2-3.62 4.94-2.29 9.9-4.54 14.87-6.75.78-.35 1.56-.69 2.37-1.05 4.56-2.03 9.14-3.98 13.76-5.89 12.26-5.22 23.96-11.75 35.4-18.56 2.53-1.48 5.08-2.87 7.66-4.25 19.01-10.32 37.11-22.15 54.31-35.26 5.39-4.11 10.91-8.04 16.4-12.01 2.77-2.01 5.53-4.02 8.29-6.04.99-.72 1.99-1.44 3.01-2.19 5.82-4.29 11.29-8.77 16.61-13.67 3.63-3.26 7.5-6.19 11.38-9.14 1.67-1.33 3.34-2.66 5-4m190-403c.33.16.33.16 2 1-.33.16-.33.16-2 1z"/></svg>