<?xml version="1.0" encoding="UTF-8" standalone="no"?>
<!-- Generated by SVGMaker - https://svgmaker.io -->
<!-- Created: 2026-06-14T03:10:10.370Z -->
<svg xmlns="http://www.w3.org/2000/svg" xmlns:xlink="http://www.w3.org/1999/xlink" version="1.1" width="2131" height="879" viewBox="0 0 2131 879" xml:space="preserve">
<desc>Created with Fabric.js 7.2.0</desc>
<defs>
</defs>
<rect x="0" y="0" width="100%" height="100%" fill="transparent"></rect>
<g transform="matrix(0.293 0 0 0.293 1066.3022 471.144)">
<filter id="SVGID_0" y="-20.01%" height="140.02%" x="-20.01%" width="140.02%">
	<feGaussianBlur in="SourceAlpha" stdDeviation="0.1015"></feGaussianBlur>
	<feOffset dx="0" dy="0" result="oBlur"></feOffset>
	<feFlood flood-color="rgb(0,0,0)" flood-opacity="1"></feFlood>
	<feComposite in2="oBlur" operator="in"></feComposite>
	<feMerge>
		<feMergeNode></feMergeNode>
		<feMergeNode in="SourceGraphic"></feMergeNode>
	</feMerge>
</filter>
<path style="stroke: none; stroke-width: 1; stroke-dasharray: none; stroke-linecap: butt; stroke-dashoffset: 0; stroke-linejoin: miter; stroke-miterlimit: 4; fill: rgb(255,255,255); fill-rule: nonzero; opacity: 1;filter: url(#SVGID_0);" transform=" translate(-1390.738, -1608)" d="M 1179 389 L 1198 389 L 1245 393 L 1269 395 L 1272 396 L 1274 396 L 1278 397 L 1282 397 L 1284 398 L 1287 398 L 1304 400 L 1315 402 L 1359 411 L 1366 413 L 1384 418 L 1387 419 L 1431 432 L 1439 434 L 1499 456 L 1503 458 L 1532 471 L 1543 476 L 1577 495 C 1600.8995 509.3036 1623.9391 524.9972 1646 542 C 1661 552 1668 572 1674 588 L 1691 629 Q 1706 669 1739 697 L 1744 703 Q 1752 711 1762 718 L 1764 720 L 1770 724 L 1773 726 C 1789.35 737.9001 1806.7561 748.2768 1825 757 Q 1861 775 1898 786 L 1903 787 L 1941 798 L 1991 812 L 1994 813 L 2001 814 L 2014 817 L 2026 820 L 2025 823 L 2022 824 C 1998 833 1981 844 1970 868 C 1964 881 1965 902 1969 915 Q 1978 938 1996 953 L 2002 959 C 2021 979 2053 991 2081 991 L 2085 991 L 2091 992 L 2101 992 L 2107 993 Q 2107 999 2104 1004 L 2095 1019 C 2084.3798 1039.7662 2070.9169 1058.9508 2055 1076 C 2048.7782 1084.6577 2041.3727 1092.3998 2033 1099 L 2007 1121 L 1979 1140 L 1968 1147 L 1966 1148 L 1956 1155 C 1934.0784 1169.2992 1910.5923 1181.0422 1886 1190 L 1882 1192 L 1872 1196 L 1866 1199 L 1827 1215 L 1823 1216 L 1788 1229 L 1748 1242 L 1745 1243 L 1686 1261 L 1668 1267 L 1630 1278 L 1556 1300 L 1545 1303 L 1506 1316 L 1504 1316 L 1499 1318 L 1457 1332 L 1441 1338 L 1435 1340 L 1414 1347 L 1372 1363 L 1367 1365 L 1312 1389 C 1254.4049 1412.5144 1199.4371 1442.0093 1148 1477 L 1139 1483 C 1118.7127 1495.9187 1099.635 1510.6454 1082 1527 L 1070 1537 L 1064 1542 L 1050 1556 L 1045 1561 L 1043 1563 L 1036 1570 L 1034 1572 L 1009 1599 L 1005 1604 L 1002 1608 L 993 1619 Q 960 1661 937 1708 L 936 1710 L 929 1725 L 928 1727 C 908.7062 1770.8457 896.2287 1817.3832 891 1865 L 891 1868 L 887 1909 L 887 1951 Q 886 2008 898 2065 L 899 2068 Q 913 2137 944 2198 L 946 2202 C 955.4944 2220.6694 966.1832 2238.7069 978 2256 L 979 2258 L 987 2268 L 991 2274 L 1010 2300 L 1012 2302 Q 1021 2316 1032 2326 Q 1036 2329 1037 2334 L 1039 2334 L 1040 2335 L 1058 2354 L 1064 2360 Q 1073 2371 1084 2378 L 1096 2389 L 1116 2406 Q 1137 2423 1160 2436 L 1166 2440 L 1194 2456 L 1198 2458 L 1244 2480 Q 1272 2493 1302 2501 L 1315 2505 L 1330 2509 L 1332 2510 C 1356.3856 2515.804 1381.0963 2520.1451 1406 2523 L 1397 2517 L 1394 2516 L 1392 2515 L 1382 2511 L 1380 2510 L 1333 2490 L 1326 2487 Q 1293 2471 1263 2450 L 1261 2449 C 1232 2427 1232 2427 1223 2418 L 1217 2413 Q 1205 2402 1196 2389 L 1194 2386 Q 1184 2374 1176 2361 L 1174 2358 Q 1145 2308 1144 2248 L 1139 2192 L 1139 2186 L 1137 2155 L 1137 2142 L 1132 2071 L 1131 2053 L 1130 2038 L 1127 1982 L 1127 1967 L 1125 1950 L 1124 1929 L 1124 1921 L 1123 1903 L 1123 1879 L 1122 1875 L 1121 1854 L 1120 1850 L 1120 1841 L 1119 1828 L 1119 1811 L 1117 1794 L 1116 1783 L 1116 1768 L 1115 1765 L 1114 1742 L 1114 1732 L 1112 1671 L 1112 1669 L 1114 1641 L 1114 1639 Q 1121 1605 1150 1586 C 1190 1563 1236 1579 1277 1589 L 1320 1598 L 1367 1606 L 1378 1607 L 1387 1609 L 1392 1609 L 1427 1613 C 1490 1623 1554 1624 1616 1624 L 1725 1624 L 1727 1623 L 1777 1621 Q 1811 1619 1847 1614 L 1853 1613 C 1903.4099 1608.1824 1953.2801 1598.8108 2002 1585 C 2078 1562 2078 1562 2095 1536 Q 2101 1526 2098 1515 C 2091 1497 2074 1487 2057 1479 Q 2030 1468 2001 1459 L 1998 1458 Q 1952 1445 1904 1438 L 1894 1436 Q 1847 1428 1799 1425 L 1796 1424 L 1790 1424 L 1779 1422 L 1763 1422 L 1742 1420 L 1724 1419 L 1716 1419 L 1688 1417 L 1686 1417 Q 1670 1417 1659 1407 Q 1653 1400 1654 1390 Q 1655 1377 1664 1371 C 1688 1354 1715 1354 1743 1356 L 1746 1356 L 1758 1358 L 1764 1358 L 1820 1363 Q 1852 1365 1884 1370 L 1900 1372 L 1940 1379 L 1970 1385 L 1973 1386 Q 2042 1399 2107 1426 L 2110 1427 C 2145 1442 2179 1465 2195 1500 Q 2201 1519 2201 1537 L 2201 1542 L 2200 1573 L 2198 1614 L 2198 1622 L 2197 1635 L 2197 1642 L 2196 1650 L 2196 1664 Q 2205 1664 2212 1660 L 2239 1650 L 2242 1649 L 2253 1646 L 2256 1645 Q 2286 1638 2318 1640 L 2321 1640 Q 2346 1639 2371 1644 L 2374 1645 Q 2402 1650 2428 1663 L 2433 1665 Q 2446 1671 2457 1679 L 2460 1681 C 2472.7784 1688.0602 2484.5503 1696.8051 2495 1707 C 2512.9321 1722.2319 2528.4429 1740.103 2541 1760 L 2555 1784 L 2556 1786 Q 2574 1824 2582 1865 L 2583 1869 L 2590 1906 L 2590 1908 Q 2593 1926 2592 1944 L 2592 1948 C 2592.0507 1963.7538 2590.7121 1979.4814 2588 1995 L 2583 2025 L 2583 2028 L 2579 2046 L 2579 2048 Q 2570 2087 2555 2123 L 2554 2125 Q 2537 2166 2513 2202 L 2511 2204 L 2488 2237 C 2476.732 2253.4176 2463.6494 2268.5129 2449 2282 L 2435 2296 L 2432 2299 L 2415 2314 L 2408 2321 L 2399 2329 L 2397 2329 L 2397 2331 Q 2372 2351 2346 2368 L 2321 2384 L 2297 2398 L 2295 2399 Q 2237 2430 2173 2445 L 2171 2446 L 2165 2447 L 2157 2450 L 2154 2499 L 2151 2570 L 2150 2582 L 2150 2586 L 2146 2615 C 2142.8909 2638.8029 2133.9607 2661.472 2120 2681 Q 2110 2695 2096 2706 L 2090 2710 L 2071 2724 L 2064 2729 C 2038 2746 2006 2756 1976 2766 L 1968 2769 L 1936 2778 L 1895 2788 L 1888 2790 L 1838 2799 L 1834 2800 L 1818 2804 L 1801 2806 L 1792 2808 L 1777 2810 L 1759 2813 L 1744 2815 L 1736 2816 L 1718 2818 L 1711 2819 L 1707 2819 L 1703 2820 L 1696 2820 L 1694 2821 L 1679 2821 L 1675 2822 L 1670 2823 L 1664 2823 L 1662 2824 L 1653 2824 L 1594 2826 L 1578 2827 L 1465 2827 L 1462 2826 L 1445 2825 L 1434 2824 L 1421 2824 L 1414 2823 L 1411 2823 L 1399 2822 L 1390 2821 L 1383 2821 L 1366 2819 L 1346 2817 L 1306 2812 L 1294 2810 L 1266 2805 L 1247 2802 L 1234 2799 L 1221 2797 C 1181.946 2789.7539 1143.2397 2780.7447 1105 2770 L 1092 2766 L 1055 2755 L 1053 2754 C 1020.5111 2744.6996 988.7572 2733.0008 958 2719 L 903 2696 L 889 2689 L 836 2663 L 834 2662 L 769 2624 L 758 2617 L 729 2598 L 705 2582 L 703 2580 L 698 2577 L 684 2567 L 674 2559 L 657 2546 L 645 2537 Q 625 2522 606 2504 L 587 2488 L 562 2466 L 562 2464 L 560 2464 L 559 2463 Q 551 2453 542 2445 L 533 2437 L 530 2434 Q 522 2427 515 2418 L 506 2409 L 501 2403 L 492 2394 L 465 2363 L 448 2342 Q 435 2328 425 2313 L 419 2304 L 418 2302 L 408 2289 L 369 2231 C 349.1126 2201.8488 331.7177 2171.0732 317 2139 C 302.6203 2113.6744 290.2491 2087.2601 280 2060 L 255 1993 L 251 1981 L 243 1954 L 242 1950 L 228 1903 L 227 1900 L 217 1853 L 211 1826 L 209 1816 C 203.2545 1790.3358 199.5761 1764.2522 198 1738 L 194 1708 L 194 1705 L 190 1652 L 189 1609 L 189 1607 C 188.1067 1548.7659 192.1209 1490.5601 201 1433 L 203 1423 L 214 1354 L 215 1351 C 223.3962 1306.7184 234.4156 1262.9747 248 1220 C 261.4159 1172.0364 277.7804 1124.9468 297 1079 L 298 1076 Q 307 1052 319 1029 L 320 1027 L 321 1025 L 342 982 L 350 965 L 357 953 L 363 943 L 364 941 L 392 889 L 407 864 L 416 849 L 428 831 L 434 822 L 441 811 L 445 806 L 448 806 L 463 839 L 465 842 C 475.8683 865.1665 490.3865 886.4374 508 905 Q 518 916 530 926 L 532 928 C 547.5548 940.5425 564.7043 950.9667 583 959 L 604 969 L 610 971 C 627.8759 978.3168 646.2571 984.3324 665 989 Q 677 992 691 992 L 694 993 Q 732 996 768 984 L 771 983 Q 780 980 790 974 L 793 973 Q 807 966 817 955 L 821 953 L 834 942 L 836 939 Q 850 924 860 907 L 862 904 C 873 885 877 864 882 844 L 883 837 Q 889 813 892 788 L 897 761 L 904 727 C 918 664 931 593 894 534 Q 884 518 870 504 L 868 502 L 849 485 C 847 479 853 473 856 467 Q 869 446 887 427 L 895 427 L 905 424 L 928 418 L 933 417 L 954 412 L 964 410 L 968 409 L 1009 401 L 1014 401 L 1017 400 L 1026 399 L 1037 397 L 1043 396 L 1048 396 L 1051 395 L 1058 395 L 1069 394 L 1080 393 L 1086 393 L 1099 391 L 1112 390 L 1127 390 Z M 1386 591 L 1390 598 L 1392 600 L 1394 602 L 1406 616 L 1412 623 L 1426 644 L 1430 651 Q 1438 663 1441 676 L 1419 674 C 1389.8841 670.3837 1360.3438 672.4209 1332 680 L 1315 684 L 1312 685 C 1271.617 694.6885 1233.3292 711.63 1199 735 L 1193 739 L 1187 743 L 1185 745 L 1164 760 L 1151 771 L 1145 775 L 1145 777 L 1143 778 L 1137 783 L 1126 792 L 1115 802 L 1110 806 L 1110 808 L 1108 809 L 1103 813 L 1096 820 L 1089 827 L 1081 835 L 1062 853 L 1056 859 L 1052 862 L 1051 864 L 1044 871 L 1036 879 L 1026 889 L 1024 891 L 1012 903 C 1000 915 1000 915 1000 917 L 997 918 L 997 920 L 995 921 L 990 925 L 988 927 L 986 929 L 984 931 L 977 938 L 970 945 L 949 965 L 937 975 L 930 982 L 922 989 L 917 994 L 895 1012 L 874 1028 L 847 1048 L 845 1049 L 810 1073 C 792.6116 1085.2138 774.2114 1095.9194 755 1105 Q 713 1128 666 1141 L 642 1149 C 645 1155 649 1155 655 1158 L 658 1160 L 695 1175 L 698 1176 L 717 1182 Q 790 1208 866 1220 L 869 1220 L 874 1221 L 889 1224 L 899 1225 L 918 1227 Q 946 1232 974 1233 L 978 1234 L 985 1234 L 997 1236 L 1000 1236 Q 1071 1239 1141 1236 L 1145 1236 L 1195 1232 L 1258 1225 L 1262 1225 L 1265 1224 L 1269 1223 L 1281 1221 L 1283 1221 Q 1345 1213 1406 1199 L 1409 1198 L 1443 1190 L 1450 1188 L 1532 1165 L 1534 1164 C 1548 1159 1548 1159 1551 1156 L 1549 1134 Q 1546 1120 1546 1105 L 1545 1101 L 1545 1099 L 1544 1091 L 1545 1075 L 1547 1066 C 1553 998 1589 938 1636 891 L 1638 889 C 1649.8347 876.9873 1662.9075 866.2609 1677 857 L 1681 855 L 1730 825 L 1729 821 L 1723 818 L 1718 816 L 1705 810 L 1678 795 L 1676 794 L 1661 784 L 1658 782 Q 1641 769 1626 753 L 1620 748 Q 1608 738 1599 724 L 1587 710 L 1585 708 L 1572 694 L 1565 686 L 1560 681 L 1557 678 Q 1534 656 1507 638 L 1503 636 C 1491.0672 627.7473 1478.3368 620.7121 1465 615 Q 1450 608 1433 603 L 1430 602 Q 1409 594 1386 591 M 2292 1781 L 2288 1782 Q 2267 1785 2248 1795 L 2246 1796 Q 2229 1806 2215 1820 L 2214 1822 C 2196.7406 1837.5852 2185.7251 1858.9055 2183 1882 L 2180 1916 L 2180 1932 L 2179 1957 L 2179 1959 L 2173 2087 L 2172 2098 L 2171 2115 L 2171 2130 L 2170 2132 L 2168 2181 L 2168 2187 L 2163 2266 L 2163 2293 L 2164 2298 Q 2176 2297 2187 2292 L 2196 2288 L 2203 2286 L 2208 2284 L 2236 2271 L 2238 2270 Q 2265 2256 2289 2238 L 2293 2235 L 2308 2223 L 2320 2213 L 2328 2206 L 2342 2193 L 2345 2191 L 2354 2179 L 2358 2175 L 2371 2160 L 2373 2157 L 2386 2140 L 2388 2137 Q 2404 2113 2417 2088 L 2418 2086 Q 2427 2067 2434 2046 L 2437 2037 C 2454 1988 2461 1928 2443 1878 L 2442 1875 Q 2433 1845 2414 1822 L 2412 1820 Q 2380 1783 2330 1779 Q 2311 1778 2292 1781 M 1652 1838 Q 1648 1842 1647 1848 L 1646 1850 L 1644 1856 L 1641 1864 L 1640 1866 L 1635 1879 L 1629 1897 L 1621 1919 L 1612 1945 L 1598 1985 L 1597 1987 C 1591 2004 1585 2014 1568 2022 Q 1532 2038 1494 2049 L 1466 2059 L 1445 2067 L 1410 2081 Q 1421 2090 1434 2093 L 1440 2095 L 1453 2100 L 1490 2113 L 1526 2126 L 1528 2126 L 1549 2133 C 1582 2144 1582 2144 1587 2153 Q 1598 2176 1605 2198 L 1623 2252 L 1625 2258 L 1652 2328 Q 1656 2325 1657 2320 L 1658 2317 L 1659 2314 L 1662 2307 L 1663 2303 L 1668 2289 L 1696 2213 L 1704 2189 L 1705 2187 C 1718 2151 1718 2151 1733 2143 L 1735 2142 L 1772 2128 L 1798 2119 L 1800 2118 L 1865 2094 L 1869 2093 L 1883 2087 L 1894 2083 L 1892 2079 L 1889 2078 L 1861 2068 Q 1838 2057 1813 2050 L 1810 2049 L 1796 2044 C 1721 2019 1721 2019 1713 2003 L 1703 1976 L 1695 1955 L 1692 1945 L 1685 1923 L 1683 1918 L 1681 1910 L 1670 1881 L 1664 1860 C 1659 1843 1659 1843 1652 1838" stroke-linecap="round"></path>
</g>
<g transform="matrix(0.293 0 0 0.293 1022.118 152.5065)">
<filter id="SVGID_1" y="-20.02%" height="140.04%" x="-20.01%" width="140.02%">
	<feGaussianBlur in="SourceAlpha" stdDeviation="0.1015"></feGaussianBlur>
	<feOffset dx="0" dy="0" result="oBlur"></feOffset>
	<feFlood flood-color="rgb(0,0,0)" flood-opacity="1"></feFlood>
	<feComposite in2="oBlur" operator="in"></feComposite>
	<feMerge>
		<feMergeNode></feMergeNode>
		<feMergeNode in="SourceGraphic"></feMergeNode>
	</feMerge>
</filter>
<path style="stroke: none; stroke-width: 1; stroke-dasharray: none; stroke-linecap: butt; stroke-dashoffset: 0; stroke-linejoin: miter; stroke-miterlimit: 4; fill: rgb(255,255,255); fill-rule: nonzero; opacity: 1;filter: url(#SVGID_1);" transform=" translate(-1239.9386, -520.5)" d="M 1282 105 L 1285 105 C 1310 106 1310 106 1316 108 L 1324 109 L 1327 109 L 1362 114 Q 1434 128 1501 157 L 1503 158 L 1547 180 L 1551 182 L 1569 193 L 1583 203 L 1613 224 L 1616 226 Q 1651 253 1679 285 L 1687 292 L 1697 305 L 1703 312 L 1713 325 L 1723 338 Q 1732 349 1739 362 L 1744 369 Q 1765 399 1780 432 L 1783 436 L 1785 436 L 1794 437 L 1801 437 L 1804 438 L 1808 439 L 1815 440 C 1826.9497 441.2266 1838.704 443.9133 1850 448 C 1927.0021 471.8009 1983.1883 538.1319 1994 618 L 1995 621 Q 2002 665 1990 707 L 1989 716 C 1983 743 1983 743 1974 753 Q 1965 754 1955 751 L 1952 750 L 1909 736 L 1898 732 Q 1871 723 1846 711 L 1844 710 C 1819.9125 699.2734 1797.9081 684.3781 1779 666 C 1767 655 1765 644 1763 628 L 1756 589 Q 1745 536 1724 486 L 1722 480 C 1712.594 458.6507 1701.2111 438.2284 1688 419 C 1672.508 391.5183 1653.3303 366.2845 1631 344 L 1629 341 L 1603 317 L 1595 311 L 1571 292 C 1552.3401 277.6151 1532.2314 265.2148 1511 255 L 1486 242 Q 1398 204 1301 197 L 1296 196 L 1236 196 L 1227 197 L 1220 198 L 1169 203 L 1166 204 C 1146.9339 206.8917 1128.1838 211.5792 1110 218 L 1097 222 C 1064.7239 231.2745 1033.7961 244.7214 1005 262 Q 979 276 957 292 L 954 294 L 910 329 L 906 333 L 884 354 L 878 360 L 873 365 L 871 366 L 855 385 L 846 395 C 833.5494 408.8803 822.4961 423.9531 813 440 L 812 442 C 797.3471 462.0897 784.624 483.5181 774 506 L 763 529 L 762 532 Q 746 568 736 606 L 735 609 L 721 673 L 714 705 L 705 753 L 704 759 L 696 799 L 696 802 L 691 819 L 688 834 L 687 838 L 683 861 L 683 864 L 673 923 L 672 927 L 671 936 Q 658 935 645 930 L 643 929 Q 613 919 586 902 L 583 900 Q 564 887 548 872 L 546 870 C 511.0326 833.0542 489.2384 785.5991 484 735 Q 478 693 491 651 L 492 648 Q 505 599 538 560 L 540 557 C 554.4161 540.7986 571.2885 526.9631 590 516 C 609.0891 505.141 629.6292 497.0596 651 492 L 669 488 L 671 488 L 704 485 L 712 473 L 714 468 L 715 466 L 718 460 L 719 458 L 721 453 L 725 445 L 733 429 L 734 425 C 743.0988 406.9599 753.4578 389.5835 765 373 Q 782 346 801 322 L 803 319 L 824 295 L 844 275 L 846 273 L 863 257 L 876 246 L 886 238 Q 897 228 909 220 L 939 199 L 970 180 L 974 178 L 977 176 L 981 174 Q 994 166 1009 160 L 1012 159 L 1058 140 L 1060 139 C 1102.0942 124.0278 1145.6791 113.6345 1190 108 L 1193 108 L 1234 105 Z" stroke-linecap="round"></path>
</g>
<g transform="matrix(0.293 0 0 0.293 1066.0164 450.927)">
<filter id="SVGID_2" y="-20.01%" height="140.02%" x="-20.01%" width="140.02%">
	<feGaussianBlur in="SourceAlpha" stdDeviation="0.1015"></feGaussianBlur>
	<feOffset dx="0" dy="0" result="oBlur"></feOffset>
	<feFlood flood-color="rgb(0,0,0)" flood-opacity="1"></feFlood>
	<feComposite in2="oBlur" operator="in"></feComposite>
	<feMerge>
		<feMergeNode></feMergeNode>
		<feMergeNode in="SourceGraphic"></feMergeNode>
	</feMerge>
</filter>
<path style="stroke: none; stroke-width: 1; stroke-dasharray: none; stroke-linecap: butt; stroke-dashoffset: 0; stroke-linejoin: miter; stroke-miterlimit: 4; fill: rgb(255,255,255); fill-rule: nonzero; opacity: 1;filter: url(#SVGID_2);" transform=" translate(-1389.7624, -1539)" d="M 1639 170 L 1652 172 L 1664 175 L 1715 187 L 1768 202 C 1806.0712 213.1693 1843.4666 226.5248 1880 242 L 1895 248 L 1930 264 L 1938 268 L 1968 282 L 1984 291 L 2024 313 Q 2037 319 2048 327 L 2061 335 Q 2091 353 2119 374 L 2129 381 L 2140 389 L 2173 414 L 2178 418 L 2186 424 L 2197 433 L 2236 467 L 2254 483 L 2266 494 L 2296 523 L 2298 524 L 2305 533 L 2319 547 L 2339 568 L 2349 580 L 2358 590 L 2360 592 L 2368 602 L 2370 603 L 2373 607 Q 2377 611 2379 616 L 2381 616 L 2382 617 L 2450 709 L 2461 724 L 2480 754 L 2490 771 L 2509 802 L 2513 808 L 2519 818 L 2521 821 L 2532 842 L 2539 858 L 2541 860 L 2575 930 L 2580 943 C 2614.4884 1019.8314 2641.2858 1099.8885 2660 1182 L 2662 1187 L 2666 1203 L 2667 1205 L 2684 1293 L 2684 1295 L 2695 1377 Q 2709 1495 2701 1613 L 2701 1616 L 2694 1690 L 2694 1694 L 2686 1751 L 2685 1755 L 2678 1795 L 2677 1805 L 2666 1858 L 2657 1897 L 2654 1911 L 2653 1915 L 2647 1937 L 2645 1947 L 2643 1948 L 2643 1946 L 2640 1896 L 2640 1893 Q 2635 1836 2613 1784 L 2611 1780 L 2609 1775 L 2608 1773 L 2602 1759 C 2596 1748 2592 1740 2594 1727 L 2597 1701 L 2602 1656 Q 2610 1586 2608 1515 L 2608 1481 L 2607 1469 L 2607 1459 L 2606 1452 L 2606 1449 C 2605.4524 1416.8948 2603.1154 1384.8451 2599 1353 Q 2592 1286 2577 1221 L 2577 1218 L 2563 1157 L 2562 1154 Q 2544 1089 2520 1027 L 2518 1023 L 2495 966 L 2494 963 L 2470 915 L 2469 912 L 2450 876 L 2429 837 L 2420 822 L 2404 796 L 2394 782 L 2391 777 L 2381 762 C 2359.913 730.2625 2336.8683 699.8703 2312 671 L 2308 667 L 2287 641 L 2262 614 L 2250 601 Q 2239 587 2226 578 L 2215 567 L 2213 565 L 2202 553 L 2185 537 L 2139 498 L 2135 495 L 2107 473 L 2101 469 L 2075 450 L 2072 448 L 2040 427 C 2013.5479 409.5399 1986.175 393.5167 1958 379 C 1897.9548 347.2738 1835.4125 320.5177 1771 299 Q 1764 295 1759 288 L 1751 279 L 1740 266 Q 1726 249 1709 233 L 1707 231 L 1694 219 L 1694 217 L 1691 216 L 1689 214 Q 1674 197 1655 185 L 1639 173 Z M 388 628 L 391 629 L 391 631 L 407 685 Q 411 696 412 709 L 412 718 L 413 738 Q 412 753 401 765 L 394 776 L 383 793 L 364 822 L 334 872 L 332 875 L 326 885 C 310.7991 908.9583 297.4278 934.0294 286 960 L 283 965 C 267.6272 993.7073 254.2619 1023.4451 243 1054 L 242 1057 L 224 1103 L 222 1109 L 221 1113 L 217 1124 C 179.029 1233.3917 153.8612 1346.8147 142 1462 L 138 1505 L 138 1510 Q 135 1581 137 1652 L 137 1654 L 141 1714 L 141 1717 L 146 1761 L 147 1766 L 148 1774 C 150.0016 1793.5395 153.3428 1812.9184 158 1832 C 163.107 1864.3849 170.1192 1896.4406 179 1928 L 190 1972 L 207 2024 L 211 2035 L 213 2042 L 216 2051 Q 232 2095 251 2135 L 257 2147 L 279 2192 L 280 2195 L 300 2229 C 317.73 2264.2847 338.8281 2297.7737 363 2329 L 366 2334 L 370 2339 L 372 2341 L 402 2381 L 404 2383 L 410 2391 L 412 2394 L 436 2422 L 452 2440 L 454 2441 L 465 2452 L 469 2459 L 472 2461 L 472 2463 L 474 2464 L 482 2471 L 503 2493 L 505 2495 L 510 2500 L 511 2501 L 517 2506 L 517 2508 L 519 2509 Q 523 2511 526 2515 L 528 2516 L 533 2521 L 559 2544 L 569 2553 L 580 2561 L 587 2567 L 612 2587 C 625.7936 2598.8182 640.5068 2609.5187 656 2619 L 659 2622 L 663 2625 L 701 2649 L 714 2658 C 732.7938 2670.7848 752.5152 2682.1497 773 2692 L 799 2706 L 802 2707 C 831.977 2723.0671 862.676 2737.7493 894 2751 L 901 2753 L 911 2758 L 949 2773 L 951 2774 L 1014 2796 L 1027 2800 L 1057 2809 L 1059 2810 C 1097.7118 2822.3024 1137.1131 2832.3197 1177 2840 L 1181 2841 L 1184 2842 L 1205 2846 Q 1236 2853 1266 2857 L 1329 2866 L 1335 2867 L 1337 2867 L 1341 2868 L 1349 2869 L 1358 2869 L 1368 2870 L 1370 2870 L 1379 2872 L 1387 2873 L 1393 2873 L 1407 2874 L 1423 2875 L 1426 2875 L 1430 2876 L 1437 2876 L 1440 2877 L 1459 2877 L 1561 2878 L 1571 2878 Q 1614 2878 1656 2874 L 1659 2874 L 1676 2873 L 1689 2873 L 1691 2872 L 1698 2871 L 1706 2871 L 1710 2873 L 1691 2877 L 1688 2878 L 1674 2880 L 1664 2882 L 1651 2885 L 1639 2887 L 1627 2890 L 1599 2894 L 1588 2896 L 1560 2899 L 1559 2900 L 1519 2903 L 1518 2904 L 1515 2904 L 1503 2905 L 1490 2905 L 1488 2906 L 1480 2907 L 1472 2907 L 1469 2908 L 1334 2908 L 1331 2907 L 1326 2907 L 1321 2906 L 1314 2905 L 1304 2905 L 1295 2904 L 1293 2904 L 1285 2903 L 1278 2902 L 1272 2902 C 1228.8578 2898.2939 1186.0648 2891.2731 1144 2881 C 1102.3982 2873.2209 1061.3193 2862.8677 1021 2850 L 980 2837 L 954 2828 L 950 2827 L 890 2802 Q 840 2782 793 2756 L 780 2749 C 759.7244 2739.7454 740.3143 2728.7017 722 2716 L 696 2700 L 694 2698 L 645 2665 L 636 2658 L 626 2652 L 622 2648 L 590 2624 L 573 2611 L 567 2606 C 553.0577 2596.1646 540.0074 2585.1221 528 2573 L 525 2570 L 523 2569 C 505.2808 2554.4922 488.5751 2538.7888 473 2522 Q 465 2512 455 2503 L 436 2484 L 429 2475 L 408 2452 L 399 2442 L 396 2439 L 364 2399 L 347 2376 L 314 2331 L 312 2328 L 299 2309 L 297 2307 L 285 2286 L 278 2276 L 266 2256 L 262 2249 L 235 2200 L 227 2185 C 206.9841 2148.4223 189.9296 2110.3005 176 2071 Q 157 2022 142 1972 L 141 1969 L 130 1931 L 124 1907 L 123 1905 L 115 1868 L 109 1842 L 97 1781 L 95 1771 L 93 1757 L 92 1755 L 91 1748 L 90 1738 L 90 1736 L 86 1706 L 85 1701 L 85 1695 L 83 1685 L 83 1676 L 82 1666 L 82 1664 L 80 1648 Q 71 1538 79 1428 L 79 1425 L 84 1369 L 85 1364 L 86 1358 L 86 1356 L 87 1351 L 88 1340 L 88 1338 L 96 1277 L 97 1275 L 102 1250 L 102 1247 C 136.2085 1084.2965 195.9472 928.0308 279 784 L 286 772 L 289 766 C 307.1759 734.593 327.5606 704.5173 350 676 L 376 643 Z M 573 251 L 577 251 L 602 253 L 605 253 Q 638 259 670 272 L 678 275 L 732 300 L 734 301 L 745 308 L 744 314 L 721 348 L 702 380 L 701 382 L 698 387 L 695 392 Q 688 391 682 386 C 655 368 615 350 582 355 Q 557 360 543 380 Q 534 395 529 412 L 528 415 Q 521 445 521 475 L 521 499 L 519 503 L 517 505 L 503 522 C 480 545 463 578 451 608 L 449 614 L 447 618 L 444 618 L 433 567 Q 426 527 426 486 L 426 470 Q 427 402 453 338 L 454 335 Q 466 309 485 288 L 488 285 Q 498 274 511 267 L 513 266 Q 541 250 573 251 M 801 515 L 808 519 L 811 521 L 819 527 L 822 528 Q 832 536 840 546 L 845 550 Q 858 567 863 588 L 864 590 C 867.99 603.961 869.3464 618.5426 868 633 Q 869 648 865 663 L 861 680 L 860 684 L 859 692 L 857 701 L 851 732 L 850 737 L 836 810 L 832 829 C 825 867 825 867 815 883 L 813 886 Q 807 896 797 905 L 793 910 L 776 924 L 774 925 Q 742 945 705 943 Q 704 931 707 920 L 714 888 Q 721 861 725 833 L 736 776 L 741 754 L 741 752 L 742 747 L 758 670 C 765.2376 640.6551 770.9122 610.9466 775 581 L 778 570 L 779 564 L 781 553 L 782 549 L 791 521 L 794 515 Z M 1329 250 L 1331 251 Q 1354 253 1376 259 L 1379 260 L 1402 266 L 1405 267 L 1410 269 Q 1417 271 1423 275 Q 1434 304 1439 334 L 1441 344 L 1443 360 L 1443 363 C 1445 378 1445 378 1442 382 L 1427 379 L 1404 372 L 1401 372 L 1353 360 L 1350 359 L 1298 351 L 1295 351 L 1289 350 L 1287 350 L 1285 349 L 1280 348 L 1272 347 L 1270 347 L 1261 346 L 1251 346 L 1244 344 L 1233 343 L 1229 343 L 1191 341 L 1174 341 L 1148 340 L 1153 327 L 1154 325 C 1167.7798 298.9622 1183.8428 274.1984 1202 251 L 1210 250 L 1212 249 C 1249 242 1291 245 1329 250 M 2452 2354 L 2454 2355 L 2441 2375 L 2435 2382 L 2419 2403 L 2402 2425 L 2395 2434 L 2385 2445 Q 2378 2456 2367 2465 L 2361 2473 L 2351 2483 L 2344 2491 L 2338 2497 Q 2330 2504 2325 2511 L 2311 2526 L 2306 2531 L 2289 2547 L 2278 2557 L 2257 2577 L 2244 2587 L 2234 2596 L 2216 2611 C 2205 2621 2205 2621 2202 2621 L 2202 2604 L 2203 2600 L 2203 2592 L 2204 2580 L 2204 2570 L 2207 2526 L 2207 2509 L 2208 2504 L 2208 2502 L 2210 2492 L 2214 2491 L 2278 2466 L 2280 2465 L 2294 2459 L 2337 2436 Q 2366 2421 2391 2401 L 2408 2389 L 2416 2383 L 2419 2381 L 2436 2367 L 2447 2358 Z M 2642 1951 L 2644 1952 L 2642 1953 Z" stroke-linecap="round"></path>
</g>
</svg>